<svg xmlns:xlink="http://www.w3.org/1999/xlink" xmlns="http://www.w3.org/2000/svg" viewBox="0 0 750 450" width="750" height="450" preserveAspectRatio="xMidYMid slice" style="width: 100%; height: 100%; transform: translate3d(0px, 0px, 0px);"><defs><clipPath id="__lottie_element_2"><rect width="750" height="450" x="0" y="0"></rect></clipPath></defs><g clip-path="url(#__lottie_element_2)"><g transform="matrix(-1,0,0,1,290,-32)" opacity="0.9709676000000047" style="display: block;"><g opacity="1" transform="matrix(1,0,0,1,144,259.9309997558594)"><path fill="#FFFFFF" fill-opacity="1" d=" M25.13800048828125,-227.08099365234375 C25.13800048828125,-227.08099365234375 -144,-0.1589999943971634 -144,-0.1589999943971634 C-144,-0.1589999943971634 25.13800048828125,227.08200073242188 25.13800048828125,227.08200073242188 C25.13800048828125,227.08200073242188 144,227.08200073242188 144,227.08200073242188 C144,227.08200073242188 -25.13800048828125,-0.1589999943971634 -25.13800048828125,-0.1589999943971634 C-25.13800048828125,-0.1589999943971634 144,-227.08099365234375 144,-227.08099365234375 C144,-227.08099365234375 25.13800048828125,-227.08099365234375 25.13800048828125,-227.08099365234375z"></path></g></g><g transform="matrix(-1,0,0,1,440,-32)" opacity="0.000832800000003573" style="display: none;"><g opacity="1" transform="matrix(1,0,0,1,144,259.9309997558594)"><path fill="#FFFFFF" fill-opacity="1" d=" M25.13800048828125,-227.08099365234375 C25.13800048828125,-227.08099365234375 -144,-0.1589999943971634 -144,-0.1589999943971634 C-144,-0.1589999943971634 25.13800048828125,227.08200073242188 25.13800048828125,227.08200073242188 C25.13800048828125,227.08200073242188 144,227.08200073242188 144,227.08200073242188 C144,227.08200073242188 -25.13800048828125,-0.1589999943971634 -25.13800048828125,-0.1589999943971634 C-25.13800048828125,-0.1589999943971634 144,-227.08099365234375 144,-227.08099365234375 C144,-227.08099365234375 25.13800048828125,-227.08099365234375 25.13800048828125,-227.08099365234375z"></path></g></g><g transform="matrix(-1,0,0,1,592,-34)" opacity="0.0009260000000031709" style="display: none;"><g opacity="1" transform="matrix(1,0,0,1,144,259.9309997558594)"><path fill="#FFFFFF" fill-opacity="1" d=" M25.13800048828125,-227.08099365234375 C25.13800048828125,-227.08099365234375 -144,-0.1589999943971634 -144,-0.1589999943971634 C-144,-0.1589999943971634 25.13800048828125,227.08200073242188 25.13800048828125,227.08200073242188 C25.13800048828125,227.08200073242188 144,227.08200073242188 144,227.08200073242188 C144,227.08200073242188 -25.13800048828125,-0.1589999943971634 -25.13800048828125,-0.1589999943971634 C-25.13800048828125,-0.1589999943971634 144,-227.08099365234375 144,-227.08099365234375 C144,-227.08099365234375 25.13800048828125,-227.08099365234375 25.13800048828125,-227.08099365234375z"></path></g></g><g transform="matrix(-1,0,0,1,742,-34)" opacity="0.0009892000000004942" style="display: none;"><g opacity="1" transform="matrix(1,0,0,1,144,259.9309997558594)"><path fill="#FFFFFF" fill-opacity="1" d=" M25.13800048828125,-227.08099365234375 C25.13800048828125,-227.08099365234375 -144,-0.1589999943971634 -144,-0.1589999943971634 C-144,-0.1589999943971634 25.13800048828125,227.08200073242188 25.13800048828125,227.08200073242188 C25.13800048828125,227.08200073242188 144,227.08200073242188 144,227.08200073242188 C144,227.08200073242188 -25.13800048828125,-0.1589999943971634 -25.13800048828125,-0.1589999943971634 C-25.13800048828125,-0.1589999943971634 144,-227.08099365234375 144,-227.08099365234375 C144,-227.08099365234375 25.13800048828125,-227.08099365234375 25.13800048828125,-227.08099365234375z"></path></g></g></g></svg>