<svg width="579" height="886" viewBox="0 0 579 886" fill="none" xmlns="http://www.w3.org/2000/svg">
<g opacity="0.05">
<g opacity="0.2">
<g opacity="0.11">
<path opacity="0.11" d="M311.616 635.951C297.912 629.826 281.006 629.798 267.303 635.927L3.1289 753.91C-1.03711 755.768 -1.03711 760.424 3.1289 762.283L269.502 881.507C281.609 886.937 296.513 886.937 308.615 881.507L575.407 762.389C579.542 760.526 579.542 755.874 575.407 754.012L311.616 635.951Z" fill="url(#paint0_linear)"/>
</g>
<g opacity="0.11">
<path opacity="0.11" d="M311.616 601.442C297.912 595.316 281.006 595.289 267.303 601.418L3.1289 719.401C-1.03711 721.259 -1.03711 725.915 3.1289 727.774L269.502 846.998C281.609 852.428 296.513 852.428 308.615 846.998L575.407 727.88C579.542 726.017 579.542 721.365 575.407 719.503L311.616 601.442Z" fill="url(#paint1_linear)"/>
</g>
<g opacity="0.11">
<path opacity="0.11" d="M311.616 566.956C297.912 560.827 281.006 560.803 267.303 566.929L3.1289 684.911C-1.03711 686.774 -1.03711 691.426 3.1289 693.288L269.502 812.512C281.609 817.938 296.513 817.938 308.615 812.512L575.407 693.39C579.542 691.531 579.542 686.876 575.407 685.014L311.616 566.956Z" fill="#995CFF"/>
</g>
<g opacity="0.11">
<path opacity="0.11" d="M311.626 532.448C297.923 526.322 281.021 526.295 267.313 532.424L3.14392 650.406C-1.02649 652.265 -1.02649 656.921 3.14392 658.779L269.517 778.003C281.619 783.433 296.524 783.433 308.626 778.003L575.418 658.885C579.553 657.023 579.553 652.371 575.418 650.509L311.626 532.448Z" fill="#995CFF"/>
</g>
<path opacity="0.11" d="M575.411 650.51L311.619 532.453C297.916 526.324 281.014 526.3 267.306 532.425L3.1321 650.408C1.06889 651.339 0 652.966 0 654.596V758.1C0 759.731 1.03369 761.357 3.1321 762.289L269.51 881.512C281.612 886.942 296.517 886.942 308.619 881.512L575.411 762.394C577.479 761.463 578.534 759.833 578.534 758.206V654.699C578.534 653.072 577.479 651.441 575.411 650.51Z" fill="#35DFB1"/>
</g>
<g opacity="0.5">
<g opacity="0.11">
<path opacity="0.11" d="M311.616 493.232C297.912 487.107 281.006 487.08 267.303 493.209L3.1289 611.191C-1.03711 613.05 -1.03711 617.705 3.1289 619.564L269.502 738.788C281.609 744.218 296.513 744.218 308.615 738.788L575.407 619.67C579.542 617.808 579.542 613.155 575.407 611.293L311.616 493.232Z" fill="#995CFF"/>
</g>
<g opacity="0.11">
<path opacity="0.11" d="M311.616 458.725C297.912 452.596 281.006 452.572 267.303 458.698L3.1289 576.681C-1.03711 578.543 -1.03711 583.195 3.1289 585.057L269.502 704.281C281.609 709.708 296.513 709.708 308.615 704.281L575.407 585.16C579.542 583.297 579.542 578.645 575.407 576.783L311.616 458.725Z" fill="#995CFF"/>
</g>
<g opacity="0.11">
<path opacity="0.11" d="M311.616 424.213C297.912 418.087 281.006 418.061 267.303 424.188L3.1289 542.169C-1.03711 544.031 -1.03711 548.683 3.1289 550.545L269.502 669.769C281.609 675.199 296.513 675.199 308.615 669.769L575.407 550.648C579.542 548.789 579.542 544.133 575.407 542.275L311.616 424.213Z" fill="#995CFF"/>
</g>
<g opacity="0.11">
<path opacity="0.11" d="M311.626 389.727C297.923 383.6 281.021 383.574 267.313 389.701L3.14392 507.683C-1.02649 509.546 -1.02649 514.198 3.14392 516.06L269.517 635.284C281.619 640.71 296.524 640.71 308.626 635.284L575.418 516.162C579.553 514.3 579.553 509.648 575.418 507.786L311.626 389.727Z" fill="#995CFF"/>
</g>
<path opacity="0.11" d="M575.411 507.789L311.619 389.727C297.916 383.601 281.014 383.575 267.306 389.701L3.1321 507.683C1.06889 508.614 0 510.244 0 511.871V615.379C0 617.006 1.03369 618.636 3.1321 619.567L269.51 738.788C281.612 744.218 296.517 744.218 308.619 738.788L575.411 619.67C577.479 618.738 578.534 617.112 578.534 615.481V511.974C578.534 510.347 577.479 508.716 575.411 507.789Z" fill="#35DFB1"/>
</g>
<g opacity="0.11">
<path opacity="0.11" d="M311.619 350.487C297.916 344.36 281.01 344.334 267.307 350.461L3.13256 468.442C-1.03344 470.304 -1.03344 474.956 3.13256 476.818L269.506 596.042C281.613 601.472 296.517 601.472 308.619 596.042L575.411 476.921C579.546 475.062 579.546 470.406 575.411 468.547L311.619 350.487Z" fill="#995CFF"/>
</g>
<g opacity="0.11">
<path opacity="0.11" d="M311.619 316.002C297.916 309.875 281.01 309.85 267.307 315.976L3.13256 433.959C-1.03344 435.82 -1.03344 440.473 3.13256 442.333L269.506 561.558C281.613 566.987 296.517 566.987 308.619 561.558L575.411 442.439C579.546 440.577 579.546 435.923 575.411 434.062L311.619 316.002Z" fill="#995CFF"/>
</g>
<g opacity="0.11">
<path opacity="0.11" d="M311.619 281.489C297.916 275.362 281.01 275.336 267.307 281.463L3.13256 399.445C-1.03344 401.307 -1.03344 405.96 3.13256 407.821L269.506 527.043C281.613 532.473 296.517 532.473 308.619 527.043L575.411 407.925C579.546 406.063 579.546 401.41 575.411 399.549L311.619 281.489Z" fill="#995CFF"/>
</g>
<g opacity="0.11">
<path opacity="0.11" d="M311.618 246.98C297.915 240.854 281.013 240.828 267.305 246.955L3.13586 364.937C-1.03454 366.798 -1.03454 371.451 3.13586 373.312L269.509 492.537C281.611 497.964 296.516 497.964 308.618 492.537L575.41 373.416C579.545 371.555 579.545 366.901 575.41 365.04L311.618 246.98Z" fill="#995CFF"/>
</g>
<path opacity="0.2" d="M575.411 365.066L311.619 246.98C297.916 240.854 281.014 240.828 267.306 246.955L3.1321 364.937C1.06889 365.868 0 367.496 0 369.125V472.631C0 474.258 1.03369 475.888 3.1321 476.819L269.51 596.043C281.612 601.469 296.517 601.469 308.619 596.043L575.411 476.922C577.479 475.99 578.534 474.364 578.534 472.733V369.228C578.534 367.626 577.479 365.997 575.411 365.066Z" fill="#35DFB1"/>
<g opacity="0.11">
<path opacity="0.11" d="M311.618 246.98C297.915 240.854 281.013 240.828 267.305 246.955L3.13586 364.937C-1.03454 366.798 -1.03454 371.451 3.13586 373.312L269.509 492.537C281.611 497.964 296.516 497.964 308.618 492.537L575.41 373.416C579.545 371.555 579.545 366.901 575.41 365.04L311.618 246.98Z" fill="#995CFF"/>
</g>
<path opacity="0.2" d="M575.369 368.66L308.617 487.778C296.51 493.208 281.606 493.208 269.504 487.778L3.12978 368.556C2.09598 368.091 1.33048 367.471 0.828973 366.747C-0.772323 368.918 -0.0068233 371.917 3.12978 373.313L269.504 492.536C281.606 497.966 296.51 497.966 308.617 492.536L575.369 373.416C578.536 372.021 579.284 369.022 577.7 366.85C577.172 367.574 576.425 368.195 575.369 368.66Z" fill="#995CFF"/>
<g opacity="0.11">
<path opacity="0.11" d="M311.619 229.657C297.916 223.531 281.01 223.505 267.307 229.631L3.13256 347.614C-1.03344 349.475 -1.03344 354.128 3.13256 355.989L269.506 475.212C281.613 480.642 296.517 480.642 308.619 475.212L575.411 356.093C579.546 354.232 579.546 349.579 575.411 347.717L311.619 229.657Z" fill="#995CFF"/>
</g>
<g opacity="0.11">
<path opacity="0.11" d="M311.619 195.178C297.916 189.051 281.01 189.025 267.307 195.152L3.13256 313.134C-1.03344 314.996 -1.03344 319.649 3.13256 321.51L269.506 440.733C281.613 446.163 296.517 446.163 308.619 440.733L575.411 321.613C579.546 319.752 579.546 315.099 575.411 313.238L311.619 195.178Z" fill="#995CFF"/>
</g>
<g opacity="0.11">
<path opacity="0.11" d="M311.619 160.663C297.916 154.536 281.01 154.51 267.307 160.637L3.13256 278.619C-1.03344 280.481 -1.03344 285.133 3.13256 286.995L269.506 406.218C281.613 411.647 296.517 411.647 308.619 406.218L575.411 287.098C579.546 285.237 579.546 280.584 575.411 278.723L311.619 160.663Z" fill="#995CFF"/>
</g>
<g opacity="0.11">
<path opacity="0.11" d="M311.618 126.154C297.915 120.027 281.013 120.001 267.305 126.128L3.13586 244.11C-1.03454 245.972 -1.03454 250.625 3.13586 252.486L269.509 371.709C281.611 377.138 296.516 377.138 308.618 371.709L575.41 252.59C579.545 250.728 579.545 246.075 575.41 244.214L311.618 126.154Z" fill="#995CFF"/>
</g>
<path opacity="0.3" d="M575.411 244.24L311.619 126.154C297.916 120.027 281.014 120.001 267.306 126.128L3.1321 244.11C1.06889 245.041 0 246.669 0 248.298V351.804C0 353.433 1.03369 355.061 3.1321 355.992L269.51 475.216C281.612 480.643 296.517 480.643 308.619 475.216L575.411 356.095C577.479 355.164 578.534 353.536 578.534 351.908V248.427C578.534 246.799 577.479 245.17 575.411 244.24Z" fill="#35DFB1"/>
<g opacity="0.11">
<path opacity="0.11" d="M311.618 126.154C297.915 120.027 281.013 120.001 267.305 126.128L3.13586 244.11C-1.03454 245.972 -1.03454 250.625 3.13586 252.486L269.509 371.709C281.611 377.138 296.516 377.138 308.618 371.709L575.41 252.59C579.545 250.728 579.545 246.075 575.41 244.214L311.618 126.154Z" fill="#995CFF"/>
</g>
<path opacity="0.3" d="M575.369 247.833L308.617 366.953C296.51 372.382 281.606 372.382 269.504 366.953L3.12978 247.729C2.09598 247.264 1.33048 246.644 0.828973 245.92C-0.772323 248.092 -0.0068233 251.09 3.12978 252.486L269.504 371.71C281.606 377.138 296.51 377.138 308.617 371.71L575.369 252.59C578.536 251.194 579.284 248.195 577.7 246.023C577.172 246.747 576.425 247.393 575.369 247.833Z" fill="#995CFF"/>
<g opacity="0.11">
<path opacity="0.11" d="M311.623 108.832C297.92 102.705 281.014 102.679 267.311 108.806L3.13671 226.788C-1.02929 228.649 -1.02929 233.302 3.13671 235.163L269.51 354.387C281.612 359.815 296.517 359.815 308.623 354.387L575.411 235.267C579.546 233.406 579.546 228.753 575.411 226.891L311.623 108.832Z" fill="#995CFF"/>
</g>
<g opacity="0.11">
<path opacity="0.11" d="M311.623 74.351C297.92 68.2245 281.014 68.1986 267.311 74.3252L3.13671 192.308C-1.02929 194.169 -1.02929 198.822 3.13671 200.683L269.51 319.907C281.612 325.335 296.517 325.335 308.623 319.907L575.411 200.787C579.546 198.926 579.546 194.272 575.411 192.411L311.623 74.351Z" fill="#995CFF"/>
</g>
<g opacity="0.11">
<path opacity="0.11" d="M311.623 39.836C297.92 33.7094 281.014 33.6834 267.311 39.81L3.13671 157.792C-1.02929 159.654 -1.02929 164.307 3.13671 166.168L269.51 285.392C281.612 290.82 296.517 290.82 308.623 285.392L575.411 166.272C579.546 164.41 579.546 159.757 575.411 157.896L311.623 39.836Z" fill="#995CFF"/>
</g>
<g opacity="0.11">
<path opacity="0.11" d="M311.628 5.32718C297.924 -0.799432 281.018 -0.825356 267.315 5.30126L3.14111 123.284C-1.0249 125.145 -1.0249 129.798 3.14111 131.659L269.515 250.883C281.621 256.311 296.526 256.311 308.628 250.883L575.415 131.763C579.55 129.902 579.55 125.248 575.415 123.387L311.628 5.32718Z" fill="#995CFF"/>
</g>
<path opacity="0.5" d="M575.42 123.413L311.633 5.32718C297.929 -0.799431 281.023 -0.825355 267.32 5.30125L3.14603 123.284C1.07843 124.214 0.0136719 125.843 0.0136719 127.472V230.978C0.0136719 232.606 1.04763 234.235 3.14603 235.166L269.519 354.389C281.626 359.817 296.531 359.817 308.633 354.389L575.42 235.269C577.487 234.338 578.543 232.709 578.543 231.081V127.601C578.543 125.972 577.487 124.344 575.42 123.413Z" fill="#35DFB1"/>
<g opacity="0.11">
<path opacity="0.11" d="M311.628 5.32718C297.924 -0.799432 281.018 -0.825356 267.315 5.30126L3.14111 123.284C-1.0249 125.145 -1.0249 129.798 3.14111 131.659L269.515 250.883C281.621 256.311 296.526 256.311 308.628 250.883L575.415 131.763C579.55 129.902 579.55 125.248 575.415 123.387L311.628 5.32718Z" fill="#995CFF"/>
</g>
<path d="M575.408 127.007L308.612 246.127C296.51 251.556 281.605 251.556 269.503 246.127L3.12958 126.903C2.09578 126.438 1.32615 125.818 0.829043 125.094C-0.772251 127.265 -0.00702045 130.264 3.12958 131.66L269.503 250.883C281.605 256.312 296.51 256.312 308.612 250.883L575.408 131.763C578.531 130.367 579.279 127.369 577.695 125.197C577.167 125.921 576.42 126.567 575.408 127.007Z" fill="#35DFB1"/>
</g>
<defs>
<linearGradient id="paint0_linear" x1="0.00549432" y1="758.463" x2="578.486" y2="758.463" gradientUnits="userSpaceOnUse">
<stop stop-color="#5761D7"/>
<stop offset="0.0726" stop-color="#5472D8"/>
<stop offset="0.2791" stop-color="#4E9CDB"/>
<stop offset="0.4801" stop-color="#49BDDD"/>
<stop offset="0.6715" stop-color="#45D5DF"/>
<stop offset="0.8493" stop-color="#43E3E0"/>
<stop offset="1" stop-color="#42E8E0"/>
</linearGradient>
<linearGradient id="paint1_linear" x1="0.00549432" y1="723.964" x2="578.486" y2="723.964" gradientUnits="userSpaceOnUse">
<stop stop-color="#5761D7"/>
<stop offset="0.0726" stop-color="#5472D8"/>
<stop offset="0.2791" stop-color="#4E9CDB"/>
<stop offset="0.4801" stop-color="#49BDDD"/>
<stop offset="0.6715" stop-color="#45D5DF"/>
<stop offset="0.8493" stop-color="#43E3E0"/>
<stop offset="1" stop-color="#42E8E0"/>
</linearGradient>
</defs>
</svg>
