<svg width="129" height="32" viewBox="0 0 129 32" fill="none" xmlns="http://www.w3.org/2000/svg">
<path d="M54.688 24L51.064 18.36L47.776 24H43.984L49.264 15.552L43.912 7.248H47.776L51.4 12.864L54.664 7.248H58.456L53.2 15.672L58.552 24H54.688ZM63.1731 14.736C61.5731 13.904 60.7731 12.616 60.7731 10.872C60.7731 10.008 60.9891 9.224 61.4211 8.52C61.8691 7.8 62.5331 7.232 63.4131 6.816C64.3091 6.384 65.3971 6.168 66.6771 6.168C67.9571 6.168 69.0371 6.384 69.9171 6.816C70.8131 7.232 71.4771 7.8 71.9091 8.52C72.3571 9.224 72.5811 10.008 72.5811 10.872C72.5811 11.752 72.3651 12.528 71.9331 13.2C71.5011 13.856 70.9251 14.368 70.2051 14.736C71.0851 15.12 71.7731 15.68 72.2691 16.416C72.7651 17.152 73.0131 18.024 73.0131 19.032C73.0131 20.12 72.7331 21.072 72.1731 21.888C71.6291 22.688 70.8771 23.304 69.9171 23.736C68.9571 24.168 67.8771 24.384 66.6771 24.384C65.4771 24.384 64.3971 24.168 63.4371 23.736C62.4931 23.304 61.7411 22.688 61.1811 21.888C60.6371 21.072 60.3651 20.12 60.3651 19.032C60.3651 18.024 60.6131 17.152 61.1091 16.416C61.6051 15.664 62.2931 15.104 63.1731 14.736ZM69.3171 11.352C69.3171 10.568 69.0771 9.96 68.5971 9.528C68.1331 9.096 67.4931 8.88 66.6771 8.88C65.8771 8.88 65.2371 9.096 64.7571 9.528C64.2931 9.96 64.0611 10.576 64.0611 11.376C64.0611 12.096 64.3011 12.672 64.7811 13.104C65.2771 13.536 65.9091 13.752 66.6771 13.752C67.4451 13.752 68.0771 13.536 68.5731 13.104C69.0691 12.656 69.3171 12.072 69.3171 11.352ZM66.6771 16.2C65.7651 16.2 65.0211 16.432 64.4451 16.896C63.8851 17.36 63.6051 18.024 63.6051 18.888C63.6051 19.688 63.8771 20.344 64.4211 20.856C64.9811 21.352 65.7331 21.6 66.6771 21.6C67.6211 21.6 68.3651 21.344 68.9091 20.832C69.4531 20.32 69.7251 19.672 69.7251 18.888C69.7251 18.04 69.4451 17.384 68.8851 16.92C68.3251 16.44 67.5891 16.2 66.6771 16.2ZM79.075 19.08C79.203 19.784 79.491 20.328 79.939 20.712C80.403 21.08 81.019 21.264 81.787 21.264C82.779 21.264 83.499 20.856 83.947 20.04C84.395 19.208 84.619 17.816 84.619 15.864C84.251 16.376 83.731 16.776 83.059 17.064C82.403 17.352 81.691 17.496 80.923 17.496C79.899 17.496 78.971 17.288 78.139 16.872C77.323 16.44 76.675 15.808 76.195 14.976C75.715 14.128 75.475 13.104 75.475 11.904C75.475 10.128 76.003 8.72 77.059 7.68C78.115 6.624 79.555 6.096 81.379 6.096C83.651 6.096 85.251 6.824 86.179 8.28C87.123 9.736 87.595 11.928 87.595 14.856C87.595 16.936 87.411 18.64 87.043 19.968C86.691 21.296 86.075 22.304 85.195 22.992C84.331 23.68 83.147 24.024 81.643 24.024C80.459 24.024 79.451 23.8 78.619 23.352C77.787 22.888 77.147 22.288 76.699 21.552C76.267 20.8 76.019 19.976 75.955 19.08H79.075ZM81.619 14.76C82.451 14.76 83.107 14.504 83.587 13.992C84.067 13.48 84.307 12.792 84.307 11.928C84.307 10.984 84.051 10.256 83.539 9.744C83.043 9.216 82.363 8.952 81.499 8.952C80.635 8.952 79.947 9.224 79.435 9.768C78.939 10.296 78.691 11 78.691 11.88C78.691 12.728 78.931 13.424 79.411 13.968C79.907 14.496 80.643 14.76 81.619 14.76Z" fill="#F4F5F6"/>
<mask id="mask0" mask-type="alpha" maskUnits="userSpaceOnUse" x="1" y="2" width="29" height="29">
<rect x="15.5" y="1" width="21.9203" height="21.9203" rx="3" transform="rotate(45 15.5 1)" fill="#C4C4C4"/>
</mask>
<g mask="url(#mask0)">
<rect x="15.5" y="1" width="21.9203" height="21.9203" rx="3" transform="rotate(45 15.5 1)" fill="url(#paint0_linear)"/>
<path d="M15.5 1L20.9462 15.4414C21.2035 16.1237 21.2035 16.8763 20.9462 17.5586L15.5 32.0001L2.12129 18.6213C0.949721 17.4498 0.949721 15.5503 2.12129 14.3787L15.5 1Z" fill="url(#paint1_linear)"/>
</g>
<defs>
<linearGradient id="paint0_linear" x1="16.6435" y1="2.14352" x2="36.2769" y2="21.7769" gradientUnits="userSpaceOnUse">
<stop stop-color="#F5D1D7"/>
<stop offset="0.432292" stop-color="#EF96C2"/>
<stop offset="0.484375" stop-color="#CA5C9E"/>
<stop offset="0.5625" stop-color="#9C2E79"/>
<stop offset="1" stop-color="#862268"/>
</linearGradient>
<linearGradient id="paint1_linear" x1="15.5" y1="2.61718" x2="15.5" y2="30.383" gradientUnits="userSpaceOnUse">
<stop stop-color="#35DFB1"/>
<stop offset="0.517954" stop-color="#396EDD"/>
<stop offset="1" stop-color="#9A44CF"/>
</linearGradient>
</defs>
</svg>
