<svg width="156" height="40" viewBox="0 0 156 40" fill="none" xmlns="http://www.w3.org/2000/svg">
<path d="M55.441 22.6226C55.441 23.0652 55.4578 23.3874 55.488 23.5924C55.5182 23.7941 55.5953 23.9633 55.7228 24.0968C55.8469 24.2302 56.0449 24.3213 56.3099 24.3734V27.2077H50.5327V24.3734C50.791 24.3213 50.9889 24.2269 51.1198 24.0903C51.254 23.9536 51.3378 23.7844 51.3714 23.5859C51.4049 23.3874 51.4217 23.0652 51.4217 22.6226V14.8289C51.4217 14.2237 51.3714 13.8006 51.2741 13.5598C51.1735 13.319 50.9285 13.1596 50.5327 13.0782V10.3545H57.4171C58.7792 10.3545 59.8729 10.5367 60.6983 10.9012C61.5236 11.2657 62.1241 11.8449 62.5032 12.6357C62.879 13.4264 63.0669 14.4742 63.0669 15.7792C63.0669 17.3281 62.9058 18.5484 62.5871 19.4336C62.2684 20.3187 61.7014 20.9663 60.8928 21.3763C60.0843 21.7863 58.9235 21.9913 57.4171 21.9913H55.441V22.6226ZM55.441 18.3597H56.9474C57.5043 18.3597 57.9304 18.3044 58.2323 18.1937C58.5343 18.0831 58.7524 17.8716 58.8899 17.5624C59.0275 17.2533 59.0946 16.801 59.0946 16.212C59.0946 15.3333 58.9436 14.7346 58.6383 14.4189C58.333 14.1 57.7794 13.9438 56.9709 13.9438H55.441V18.3597Z" fill="#35DFB1"/>
<path d="M64.939 16.0234C64.939 15.2262 64.9557 14.5981 64.9893 14.1393C65.0228 13.6804 65.1067 13.2411 65.2342 12.8148C65.365 12.3918 65.5731 12.0013 65.8616 11.6466C66.3246 11.0706 66.962 10.6541 67.7672 10.4003C68.5724 10.1464 69.5789 10.0195 70.78 10.0195C71.9677 10.0195 72.9574 10.1464 73.7525 10.4003C74.5476 10.6541 75.1851 11.0706 75.6648 11.6466C76.0674 12.1412 76.3224 12.7107 76.4298 13.3518C76.5371 13.9928 76.5908 14.8845 76.5908 16.0202V21.536C76.5908 22.6717 76.5371 23.5633 76.4298 24.2044C76.3224 24.8454 76.0674 25.4149 75.6648 25.9095C75.1918 26.479 74.5577 26.8923 73.7592 27.1559C72.9607 27.4195 71.9677 27.5496 70.78 27.5496C69.5789 27.5496 68.5724 27.4195 67.7672 27.1559C66.9587 26.8955 66.3246 26.479 65.8616 25.9095C65.5798 25.5613 65.3718 25.1774 65.2409 24.7511C65.1067 24.328 65.0228 23.8855 64.9893 23.4266C64.9557 22.9678 64.939 22.3365 64.939 21.5327V16.0234ZM68.9381 15.89V21.6726C68.9381 22.535 69.079 23.1663 69.3608 23.56C69.6427 23.9538 70.1191 24.1523 70.7867 24.1523C71.4577 24.1523 71.9274 23.9538 72.1958 23.5535C72.4675 23.1533 72.6017 22.5285 72.6017 21.6694V15.89C72.6017 15.0407 72.4675 14.4159 72.2025 14.0189C71.9375 13.6219 71.4644 13.4201 70.7867 13.4201C70.109 13.4201 69.6326 13.6186 69.3541 14.0124C69.0757 14.4061 68.9381 15.0342 68.9381 15.89Z" fill="#35DFB1"/>
<path d="M90.7422 27.2077H79.0064V24.3734C79.2647 24.3213 79.4627 24.2269 79.5935 24.0903C79.7277 23.9536 79.8116 23.7844 79.8452 23.5859C79.8787 23.3874 79.8955 23.0652 79.8955 22.6226V14.8289C79.8955 14.2237 79.8452 13.8006 79.7479 13.5598C79.6472 13.319 79.4023 13.1596 79.0064 13.0782V10.3545H84.7837V13.0782C84.5187 13.1303 84.3241 13.2247 84.1999 13.3613C84.0758 13.498 83.9986 13.6705 83.9651 13.8755C83.9315 14.0837 83.9148 14.3994 83.9148 14.8289V24.0089H85.2266C85.8204 24.0089 86.2632 23.921 86.5551 23.7486C86.847 23.5761 87.0383 23.3125 87.1255 22.9578C87.2127 22.6031 87.2563 22.0955 87.2563 21.4284V19.567H90.7388V27.2077H90.7422Z" fill="#35DFB1"/>
<path d="M97.3883 22.6226C97.3883 23.0652 97.4051 23.3874 97.4353 23.5924C97.4655 23.7941 97.5427 23.9633 97.6701 24.0968C97.7943 24.2302 97.9922 24.3213 98.2573 24.3734V27.2077H92.48V24.3734C92.7383 24.3213 92.9363 24.2269 93.0671 24.0903C93.2013 23.9536 93.2852 23.7844 93.3187 23.5859C93.3523 23.3874 93.369 23.0652 93.369 22.6226V14.8289C93.369 14.2237 93.3187 13.8006 93.2214 13.5598C93.1208 13.319 92.8759 13.1596 92.48 13.0782V10.3545H99.3074C101.27 10.3545 102.716 10.7352 103.645 11.4934C104.575 12.2549 105.038 13.4947 105.038 15.2129C105.038 16.2608 104.813 17.1166 104.363 17.7772C103.914 18.4378 103.26 18.8836 102.401 19.1114C103.239 19.2969 103.816 19.5833 104.135 19.9738C104.454 20.3643 104.615 20.9598 104.615 21.757V22.6649C104.615 23.2409 104.662 23.6509 104.759 23.8983C104.853 24.1456 105.058 24.3018 105.37 24.3701V27.2045H101.065C100.904 26.8726 100.807 26.5276 100.77 26.1697C100.733 25.8117 100.713 25.3333 100.713 24.7346V22.5738C100.713 22.0336 100.656 21.6171 100.549 21.3177C100.438 21.0183 100.237 20.8068 99.9448 20.6799C99.6529 20.553 99.2168 20.4912 98.6364 20.4912H97.3917V22.6226H97.3883ZM97.3883 17.5299H98.9652C99.6966 17.5299 100.233 17.3737 100.576 17.058C100.918 16.7456 101.089 16.2412 101.089 15.5449C101.089 14.842 100.918 14.3278 100.582 13.9991C100.243 13.6705 99.72 13.5078 99.0121 13.5078H97.3917V17.5299H97.3883Z" fill="#35DFB1"/>
<path d="M107 27.2081V24.3737C107.312 24.2858 107.537 24.1101 107.675 23.8465C107.812 23.5862 107.936 23.1697 108.05 22.6002L110.506 10.3516H116.478L119.182 22.8768C119.28 23.3486 119.4 23.6968 119.541 23.9181C119.682 24.1394 119.897 24.2923 120.185 24.3737V27.2081H114.271V24.3737C114.559 24.3509 114.777 24.2663 114.921 24.1199C115.066 23.9734 115.139 23.7912 115.139 23.5764C115.139 23.443 115.123 23.277 115.093 23.0785L114.945 22.3822H111.59L111.442 23.0135C111.412 23.2217 111.395 23.3942 111.395 23.5341C111.395 23.8075 111.472 24.0125 111.623 24.1557C111.774 24.2956 112.013 24.3704 112.331 24.3769V27.2113H107V27.2081ZM112.023 19.9773H114.385L113.197 13.5309L112.023 19.9773Z" fill="#35DFB1"/>
<path d="M126.503 22.6226C126.503 23.0652 126.516 23.3874 126.55 23.5924C126.58 23.7941 126.657 23.9633 126.785 24.0968C126.912 24.2302 127.107 24.3213 127.372 24.3734V27.2077H121.594V24.3734C121.853 24.3213 122.051 24.2269 122.182 24.0903C122.316 23.9536 122.4 23.7844 122.433 23.5859C122.467 23.3874 122.484 23.0652 122.484 22.6226V14.8289C122.484 14.2237 122.433 13.8006 122.336 13.5598C122.239 13.319 121.99 13.1596 121.594 13.0782V10.3545H128.422C130.385 10.3545 131.831 10.7352 132.76 11.4934C133.689 12.2549 134.152 13.4947 134.152 15.2129C134.152 16.2608 133.927 17.1166 133.478 17.7772C133.028 18.4378 132.374 18.8836 131.515 19.1114C132.354 19.2969 132.931 19.5833 133.25 19.9738C133.568 20.3643 133.729 20.9598 133.729 21.757V22.6649C133.729 23.2409 133.776 23.6509 133.87 23.8983C133.964 24.1456 134.169 24.3018 134.481 24.3701V27.2045H130.177C130.015 26.8726 129.918 26.5276 129.881 26.1697C129.844 25.8117 129.824 25.3333 129.824 24.7346V22.5738C129.824 22.0336 129.767 21.6171 129.66 21.3177C129.549 21.0183 129.348 20.8068 129.056 20.6799C128.764 20.553 128.328 20.4912 127.748 20.4912H126.503V22.6226ZM126.503 17.5299H128.08C128.811 17.5299 129.348 17.3737 129.69 17.058C130.032 16.7456 130.203 16.2412 130.203 15.5449C130.203 14.842 130.036 14.3278 129.697 13.9991C129.358 13.6705 128.835 13.5078 128.127 13.5078H126.506V17.5299H126.503Z" fill="#35DFB1"/>
<path d="M136.742 27.2077V24.3734C137.001 24.3213 137.199 24.2269 137.329 24.0903C137.464 23.9536 137.548 23.7844 137.581 23.5859C137.615 23.3874 137.631 23.0652 137.631 22.6226V14.8289C137.631 14.2237 137.581 13.8006 137.484 13.5598C137.386 13.319 137.138 13.1596 136.742 13.0782V10.3545H148.981V15.5026H145.214V15.3268C145.214 14.663 145.063 14.2042 144.757 13.9536C144.452 13.703 143.912 13.5761 143.137 13.5761H141.654V17.0971H146.405V19.9315H141.654V23.9861H143.412C144.113 23.9861 144.586 23.8527 144.838 23.5826C145.09 23.3125 145.214 22.8439 145.214 22.1703V21.5618H148.981V27.211H136.742V27.2077Z" fill="#35DFB1"/>
<path d="M43.9603 15.3756L41.2629 17.9919L37.0155 22.1117H29.4567L29.4534 17.7837L30.1244 17.1328V17.7804H35.1669L37.6462 15.3756L33.3451 11.2038H27.2223V12.6584H27.2189V16.7098L27.2223 25.4862L27.2189 25.4895L27.1082 25.5969H27.2189L27.2223 31.6138L24.9879 33.7778L6.01544 15.3756L14.782 6.87251H20.519V10.553H21.19L20.519 11.2038H16.6306L12.3295 15.3756L22.7535 25.4862V25.5969H22.8675L22.7535 25.4862V6.87251L23.4244 6.22168V6.87251H35.1937L43.9603 15.3756Z" fill="#3E2E68"/>
<path d="M44.6313 14.7248L41.9339 17.3411L37.6865 21.4609H30.1277L30.1244 17.1328L35.8379 17.1296L38.3172 14.7248L34.0162 10.553H27.8933V12.0076H27.89V16.059L27.8933 24.8354L27.89 24.8387L27.7792 24.9461H27.89L27.8933 30.963L25.6589 33.127L6.68646 14.7248L15.453 6.22168H21.1901V10.553H17.3016L13.0005 14.7248L23.4245 24.8354V24.9461H23.5385L23.4245 24.8354V6.22168H35.8648L44.6313 14.7248Z" fill="url(#paint0_linear)"/>
<defs>
<linearGradient id="paint0_linear" x1="38.5611" y1="-1.76055" x2="11.3417" y2="35.2066" gradientUnits="userSpaceOnUse">
<stop offset="0.1423" stop-color="#02E879"/>
<stop offset="0.334" stop-color="#279EA5"/>
<stop offset="0.5205" stop-color="#475CCC"/>
<stop offset="0.6552" stop-color="#5B34E4"/>
<stop offset="0.7247" stop-color="#6324ED"/>
</linearGradient>
</defs>
</svg>
