<svg width="24" height="24" viewBox="0 0 24 24" fill="none" xmlns="http://www.w3.org/2000/svg">
<path fill-rule="evenodd" clip-rule="evenodd" d="M0.702944 0.702944C1.6402 -0.234315 3.1598 -0.234315 4.09706 0.702944L23.2971 19.9029C24.2343 20.8402 24.2343 22.3598 23.2971 23.2971C22.3598 24.2343 20.8402 24.2343 19.9029 23.2971L0.702944 4.09706C-0.234315 3.1598 -0.234315 1.6402 0.702944 0.702944Z" fill="#DEDEDE"/>
<path fill-rule="evenodd" clip-rule="evenodd" d="M0.702944 23.2971C1.6402 24.2343 3.1598 24.2343 4.09706 23.2971L23.2971 4.09706C24.2343 3.1598 24.2343 1.6402 23.2971 0.702944C22.3598 -0.234316 20.8402 -0.234316 19.9029 0.702944L0.702944 19.9029C-0.234315 20.8402 -0.234315 22.3598 0.702944 23.2971Z" fill="#DEDEDE"/>
</svg>
