<svg width="634" height="634" viewBox="0 0 634 634" fill="none" xmlns="http://www.w3.org/2000/svg">
<g filter="url(#filter0_d)">
<path d="M317 346V378L244 420V388L317 346Z" fill="#3F0066"/>
<path d="M317 346V378L390 420V388L317 346Z" fill="#3F0066"/>
<path d="M317 378L390 420L317 463L244 420L317 378Z" fill="#6900A9"/>
<path d="M317 346L390 388L317 431L244 388L317 346Z" fill="#AA08F7"/>
</g>
<path opacity="0.8" d="M317 364L358 386.927L317 411L276 386.927L317 364Z" fill="url(#paint0_linear)"/>
<path opacity="0.1" d="M266 271H368L358 386.842L317 411L276 386.842L266 271Z" fill="url(#paint1_linear)"/>
<circle opacity="0.3" cx="294" cy="386" r="1" fill="white"/>
<circle cx="302" cy="394" r="1" fill="white"/>
<circle cx="314.5" cy="401.5" r="1.5" fill="white"/>
<circle cx="315" cy="385" r="1" fill="white"/>
<circle opacity="0.5" cx="310" cy="361" r="1" fill="white"/>
<circle opacity="0.2" cx="339" cy="352" r="1" fill="white"/>
<circle cx="293" cy="343" r="1" fill="white"/>
<circle cx="276.5" cy="338.5" r="0.5" fill="white"/>
<circle opacity="0.3" cx="328" cy="336" r="1" fill="white"/>
<circle opacity="0.4" cx="300" cy="330" r="1" fill="white"/>
<circle cx="339.5" cy="317.5" r="1.5" fill="white"/>
<circle opacity="0.6" cx="290.5" cy="370.5" r="1.5" fill="white"/>
<circle opacity="0.3" cx="357.5" cy="362.5" r="1.5" fill="white"/>
<circle cx="357.5" cy="312.5" r="1.5" fill="white"/>
<circle opacity="0.5" cx="288.5" cy="323.5" r="0.5" fill="white"/>
<circle opacity="0.6" cx="283.5" cy="300.5" r="0.5" fill="white"/>
<circle opacity="0.5" cx="309" cy="319" r="1" fill="white"/>
<circle cx="332" cy="395" r="1" fill="white"/>
<circle cx="317" cy="270" r="30" fill="white"/>
<g clip-path="url(#clip0)">
<path d="M325.507 264.46C324.899 264.122 324.118 264.122 323.424 264.46L318.562 267.251L315.264 269.027L310.49 271.818C309.882 272.157 309.101 272.157 308.406 271.818L304.674 269.619C304.066 269.281 303.632 268.605 303.632 267.843V263.614C303.632 262.938 303.979 262.261 304.674 261.838L308.406 259.724C309.014 259.386 309.795 259.386 310.49 259.724L314.222 261.923C314.83 262.261 315.264 262.938 315.264 263.699V266.49L318.562 264.629V261.754C318.562 261.077 318.215 260.401 317.521 259.978L310.576 256.003C309.969 255.664 309.187 255.664 308.493 256.003L301.375 260.062C300.68 260.401 300.333 261.077 300.333 261.754V269.704C300.333 270.381 300.68 271.057 301.375 271.48L308.406 275.455C309.014 275.794 309.795 275.794 310.49 275.455L315.264 272.749L318.562 270.888L323.337 268.182C323.944 267.843 324.726 267.843 325.42 268.182L329.153 270.296C329.76 270.634 330.194 271.311 330.194 272.072V276.301C330.194 276.978 329.847 277.654 329.153 278.077L325.507 280.192C324.899 280.53 324.118 280.53 323.424 280.192L319.691 278.077C319.083 277.739 318.649 277.062 318.649 276.301V273.595L315.351 275.455V278.246C315.351 278.923 315.698 279.6 316.392 280.022L323.424 283.998C324.031 284.336 324.812 284.336 325.507 283.998L332.538 280.022C333.146 279.684 333.58 279.007 333.58 278.246V270.211C333.58 269.535 333.233 268.858 332.538 268.435L325.507 264.46Z" fill="#7E45DD"/>
</g>
<g filter="url(#filter1_d)">
<path d="M103 475V507L30 549V517L103 475Z" fill="#0D5879"/>
<path d="M103 475V507L176 549V517L103 475Z" fill="#0D5879"/>
<path d="M103 507L176 549L103 592L30 549L103 507Z" fill="#0780B5"/>
<path d="M103 475L176 517L103 560L30 517L103 475Z" fill="#02A0E4"/>
</g>
<path opacity="0.8" d="M103 495L145 518.415L103 543L61 518.415L103 495Z" fill="url(#paint2_linear)"/>
<path opacity="0.1" d="M51 417.5H155L145 518.526L103 543L61 518.526L51 417.5Z" fill="url(#paint3_linear)"/>
<circle cx="103" cy="418" r="30" fill="white"/>
<g clip-path="url(#clip1)">
<path d="M103 434.667C112.205 434.667 119.667 427.205 119.667 418C119.667 408.795 112.205 401.333 103 401.333C93.7954 401.333 86.3335 408.795 86.3335 418C86.3335 427.205 93.7954 434.667 103 434.667Z" fill="#2E3148"/>
<path d="M103 427.671C108.341 427.671 112.671 423.341 112.671 418C112.671 412.659 108.341 408.329 103 408.329C97.6591 408.329 93.3293 412.659 93.3293 418C93.3293 423.341 97.6591 427.671 103 427.671Z" fill="#1B1E36"/>
<path d="M103.034 403.459C101.235 403.459 99.7766 409.985 99.7766 418.034C99.7766 426.084 101.235 432.609 103.034 432.609C104.834 432.609 106.292 426.084 106.292 418.034C106.292 409.985 104.834 403.459 103.034 403.459ZM103.259 431.787C103.054 432.061 102.848 431.855 102.848 431.855C102.019 430.895 101.605 429.112 101.605 429.112C100.156 424.448 100.501 414.434 100.501 414.434C101.182 406.484 102.421 404.606 102.842 404.189C102.886 404.147 102.942 404.121 103.003 404.116C103.063 404.111 103.123 404.127 103.172 404.163C103.784 404.596 104.297 406.409 104.297 406.409C105.812 412.033 105.675 417.314 105.675 417.314C105.812 421.909 104.916 427.053 104.916 427.053C104.226 430.963 103.259 431.787 103.259 431.787Z" fill="#6F7390"/>
<path d="M115.676 410.781C114.781 409.22 108.395 411.202 101.41 415.208C94.4242 419.213 89.4968 423.726 90.3918 425.287C91.2869 426.847 97.673 424.866 104.659 420.86C111.644 416.854 116.571 412.342 115.676 410.781ZM91.2182 425.073C90.8753 425.029 90.9528 424.748 90.9528 424.748C91.3734 423.551 92.7121 422.304 92.7121 422.304C96.0378 418.726 104.896 414.042 104.896 414.042C112.13 410.677 114.377 410.819 114.947 410.976C115.005 410.992 115.056 411.029 115.09 411.079C115.124 411.129 115.14 411.19 115.133 411.25C115.065 411.997 113.745 413.344 113.745 413.344C109.623 417.458 104.973 419.968 104.973 419.968C101.056 422.374 96.1477 424.156 96.1477 424.156C92.4132 425.501 91.2184 425.073 91.2184 425.073H91.2182Z" fill="#6F7390"/>
<path d="M115.645 425.339C116.548 423.782 111.632 419.248 104.672 415.212C97.7106 411.177 91.326 409.17 90.4241 410.73C89.5222 412.289 94.4365 416.82 101.401 420.856C108.366 424.892 114.743 426.898 115.645 425.339ZM91.0222 411.331C90.8889 411.015 91.1704 410.939 91.1704 410.939C92.4165 410.704 94.1669 411.24 94.1669 411.24C98.9289 412.324 107.42 417.643 107.42 417.643C113.958 422.218 114.961 424.233 115.111 424.805C115.126 424.864 115.12 424.926 115.094 424.981C115.068 425.035 115.023 425.079 114.968 425.104C114.286 425.416 112.461 424.951 112.461 424.951C106.833 423.442 102.332 420.678 102.332 420.678C98.2885 418.496 94.2898 415.14 94.2898 415.14C91.2514 412.582 91.0232 411.335 91.0232 411.335L91.0222 411.331Z" fill="#6F7390"/>
<path d="M103 419.714C103.947 419.714 104.715 418.947 104.715 418C104.715 417.053 103.947 416.285 103 416.285C102.053 416.285 101.285 417.053 101.285 418C101.285 418.947 102.053 419.714 103 419.714Z" fill="#B7B9C8"/>
<path d="M110.03 412.444C110.58 412.444 111.025 411.984 111.025 411.416C111.025 410.847 110.58 410.387 110.03 410.387C109.481 410.387 109.036 410.847 109.036 411.416C109.036 411.984 109.481 412.444 110.03 412.444Z" fill="#B7B9C8"/>
<path d="M93.7064 415.942C94.2557 415.942 94.701 415.482 94.701 414.914C94.701 414.345 94.2557 413.885 93.7064 413.885C93.1572 413.885 92.7119 414.345 92.7119 414.914C92.7119 415.482 93.1572 415.942 93.7064 415.942Z" fill="#B7B9C8"/>
<path d="M100.977 428.562C101.526 428.562 101.971 428.102 101.971 427.533C101.971 426.965 101.526 426.505 100.977 426.505C100.428 426.505 99.9824 426.965 99.9824 427.533C99.9824 428.102 100.428 428.562 100.977 428.562Z" fill="#B7B9C8"/>
</g>
<g filter="url(#filter2_d)">
<path d="M531 475V507L458 549V517L531 475Z" fill="#481114"/>
<path d="M531 475V507L604 549V517L531 475Z" fill="#481114"/>
<path d="M531 507L604 549L531 592L458 549L531 507Z" fill="#8B1820"/>
<path d="M531 475L604 517L531 560L458 517L531 475Z" fill="#E00D13"/>
</g>
<path opacity="0.8" d="M531 495L573 518.415L531 543L489 518.415L531 495Z" fill="url(#paint4_linear)"/>
<path opacity="0.1" d="M479 417.5H583L573 518.526L531 543L489 518.526L479 417.5Z" fill="url(#paint5_linear)"/>
<circle cx="531" cy="418" r="30" fill="white"/>
<g clip-path="url(#clip2)">
<path d="M530.734 402.167C524.448 402.193 519.359 407.407 519.333 413.847C519.333 415.137 519.537 416.418 519.935 417.641C520.232 418.474 521.113 418.922 521.94 418.665C522.74 418.351 523.164 417.455 522.909 416.618C522.571 415.664 522.421 414.653 522.466 413.64C522.603 408.989 526.394 405.331 530.934 405.472C535.474 405.612 539.044 409.496 538.907 414.148C538.778 418.502 535.431 422.039 531.185 422.304C531.185 422.304 529.585 422.404 528.789 422.503C528.496 422.547 528.205 422.606 527.917 422.681C527.876 422.724 527.81 422.724 527.768 422.682L527.767 422.681C527.738 422.643 527.738 422.588 527.767 422.55L528.015 421.166L529.518 414.24C529.698 413.375 529.16 412.524 528.316 412.339C527.472 412.155 526.642 412.705 526.461 413.57C526.461 413.57 522.887 430.522 522.887 430.676C522.682 431.5 523.168 432.337 523.972 432.547C523.981 432.549 523.99 432.552 523.999 432.553H524.082C524.885 432.766 525.705 432.271 525.912 431.448C525.915 431.434 525.919 431.421 525.921 431.406C525.919 431.38 525.919 431.354 525.921 431.33C525.966 431.13 526.417 428.875 526.417 428.875C526.758 427.172 528.098 425.868 529.774 425.604C530.119 425.55 531.569 425.45 531.569 425.45C537.831 424.811 542.401 419.091 541.776 412.676C541.206 406.824 536.475 402.319 530.734 402.167Z" fill="#1E1E1E"/>
<path d="M531.426 429.099C530.398 428.88 529.392 429.556 529.178 430.608C529.176 430.618 529.175 430.628 529.172 430.637C528.95 431.683 529.597 432.717 530.619 432.945C530.62 432.945 530.621 432.945 530.623 432.946H530.675C531.676 433.194 532.682 432.563 532.923 431.539C532.925 431.532 532.926 431.523 532.929 431.516V431.409C533.105 430.352 532.447 429.338 531.426 429.099Z" fill="#E6007A"/>
</g>
<g filter="url(#filter3_d)">
<path d="M103 208V240L30 282V250L103 208Z" fill="#463A1B"/>
<path d="M103 208V240L176 282V250L103 208Z" fill="#5D4B1E"/>
<path d="M103 240L176 282L103 325L30 282L103 240Z" fill="#A27E26"/>
<path d="M103 208L176 250L103 293L30 250L103 208Z" fill="#DDAF17"/>
</g>
<path opacity="0.8" d="M103 228L145 251.415L103 276L61 251.415L103 228Z" fill="url(#paint6_linear)"/>
<path opacity="0.1" d="M51 153.5H155L145 251.526L103 276L61 251.526L51 153.5Z" fill="url(#paint7_linear)"/>
<g filter="url(#filter4_d)">
<circle cx="103" cy="138" r="30" fill="white"/>
</g>
<g clip-path="url(#clip3)">
<path d="M96.5265 135.34L103 128.867L109.477 135.343L113.243 131.576L103 121.333L92.7601 131.573L96.5267 135.34L96.5265 135.34ZM86.3335 138L90.1003 134.233L93.8668 137.999L90.1 141.766L86.3335 138ZM96.5265 140.66L103 147.133L109.477 140.657L113.245 144.422L113.243 144.424L103 154.667L92.7601 144.427L92.7548 144.421L96.5269 140.66L96.5265 140.66ZM112.133 138.002L115.9 134.235L119.667 138.001L115.9 141.768L112.133 138.002Z" fill="#F3BA2F"/>
<path d="M106.82 137.998H106.822L103 134.176L100.175 137L99.8507 137.325L99.1814 137.994L99.176 137.999L99.1814 138.005L103 141.824L106.822 138.002L106.824 138L106.821 137.998" fill="#F3BA2F"/>
</g>
<g filter="url(#filter5_d)">
<path d="M317 96V128L244 170V138L317 96Z" fill="#2A2A2C"/>
<path d="M317 96V128L390 170V138L317 96Z" fill="#2A2A2C"/>
<path d="M317 128L390 170L317 213L244 170L317 128Z" fill="#303034"/>
<path d="M317 96L390 138L317 181L244 138L317 96Z" fill="#4A4A53"/>
</g>
<path opacity="0.8" d="M317 115L358 138.415L317 163L276 138.415L317 115Z" fill="url(#paint8_linear)"/>
<path opacity="0.1" d="M266 30H368L358 138.842L317 163L276 138.842L266 30Z" fill="url(#paint9_linear)"/>
<circle cx="317" cy="30" r="30" fill="white"/>
<g clip-path="url(#clip4)">
<path d="M316.997 12.5L316.76 13.3163V37.0048L316.997 37.2446L327.827 30.7449L316.997 12.5Z" fill="#343434"/>
<path d="M316.997 12.5L306.167 30.7449L316.997 37.2447V25.747V12.5Z" fill="#8C8C8C"/>
<path d="M316.997 39.3265L316.864 39.4915V47.9298L316.997 48.3252L327.833 32.8301L316.997 39.3265Z" fill="#3C3C3B"/>
<path d="M316.997 48.3252V39.3265L306.167 32.8301L316.997 48.3252Z" fill="#8C8C8C"/>
<path d="M316.997 37.2446L327.827 30.745L316.997 25.7471V37.2446Z" fill="#141414"/>
<path d="M306.167 30.745L316.997 37.2446V25.7471L306.167 30.745Z" fill="#393939"/>
</g>
<g filter="url(#filter6_d)">
<path d="M531 208V240L458 282V250L531 208Z" fill="#0F482E"/>
<path d="M531 208V240L604 282V250L531 208Z" fill="#0F482E"/>
<path d="M531 240L604 282L531 325L458 282L531 240Z" fill="#099D54"/>
<path d="M531 208L604 250L531 293L458 250L531 208Z" fill="#02E879"/>
</g>
<path opacity="0.8" d="M531 226L572 248.927L531 273L490 248.927L531 226Z" fill="url(#paint10_linear)"/>
<path opacity="0.1" d="M480 140H582L572 248.842L531 273L490 248.842L480 140Z" fill="url(#paint11_linear)"/>
<circle opacity="0.3" cx="508" cy="248" r="1" fill="white"/>
<circle cx="516" cy="256" r="1" fill="white"/>
<circle cx="528.5" cy="263.5" r="1.5" fill="white"/>
<circle cx="529" cy="247" r="1" fill="white"/>
<circle opacity="0.5" cx="524" cy="223" r="1" fill="white"/>
<circle opacity="0.2" cx="553" cy="214" r="1" fill="white"/>
<circle cx="507" cy="205" r="1" fill="white"/>
<circle cx="490.5" cy="200.5" r="0.5" fill="white"/>
<circle opacity="0.3" cx="542" cy="198" r="1" fill="white"/>
<circle opacity="0.4" cx="514" cy="192" r="1" fill="white"/>
<circle cx="553.5" cy="179.5" r="1.5" fill="white"/>
<circle opacity="0.6" cx="504.5" cy="232.5" r="1.5" fill="white"/>
<circle opacity="0.3" cx="571.5" cy="224.5" r="1.5" fill="white"/>
<circle cx="571.5" cy="174.5" r="1.5" fill="white"/>
<circle opacity="0.5" cx="502.5" cy="185.5" r="0.5" fill="white"/>
<circle opacity="0.6" cx="497.5" cy="162.5" r="0.5" fill="white"/>
<circle opacity="0.5" cx="523" cy="181" r="1" fill="white"/>
<circle cx="546" cy="257" r="1" fill="white"/>
<circle cx="531" cy="138" r="30" fill="white"/>
<g clip-path="url(#clip5)">
<path d="M522.561 143.265C522.712 143.111 522.919 143.021 523.139 143.021H543.091C543.456 143.021 543.638 143.47 543.381 143.733L539.439 147.756C539.288 147.91 539.081 148 538.861 148H518.909C518.544 148 518.362 147.551 518.619 147.288L522.561 143.265Z" fill="url(#paint12_linear)"/>
<path d="M522.56 128.244C522.717 128.09 522.924 128 523.138 128H543.09C543.455 128 543.637 128.449 543.379 128.712L539.438 132.735C539.287 132.889 539.08 132.979 538.86 132.979H518.907C518.543 132.979 518.361 132.53 518.618 132.267L522.56 128.244Z" fill="url(#paint13_linear)"/>
<path d="M539.439 135.706C539.288 135.552 539.081 135.462 538.861 135.462H518.909C518.544 135.462 518.362 135.912 518.619 136.175L522.561 140.198C522.712 140.352 522.919 140.442 523.139 140.442H543.091C543.456 140.442 543.638 139.992 543.381 139.729L539.439 135.706Z" fill="url(#paint14_linear)"/>
</g>
<defs>
<filter id="filter0_d" x="214" y="328" width="206" height="177" filterUnits="userSpaceOnUse" color-interpolation-filters="sRGB">
<feFlood flood-opacity="0" result="BackgroundImageFix"/>
<feColorMatrix in="SourceAlpha" type="matrix" values="0 0 0 0 0 0 0 0 0 0 0 0 0 0 0 0 0 0 127 0"/>
<feOffset dy="12"/>
<feGaussianBlur stdDeviation="15"/>
<feColorMatrix type="matrix" values="0 0 0 0 0.494118 0 0 0 0 0.270588 0 0 0 0 0.866667 0 0 0 0.2 0"/>
<feBlend mode="normal" in2="BackgroundImageFix" result="effect1_dropShadow"/>
<feBlend mode="normal" in="SourceGraphic" in2="effect1_dropShadow" result="shape"/>
</filter>
<filter id="filter1_d" x="0" y="457" width="206" height="177" filterUnits="userSpaceOnUse" color-interpolation-filters="sRGB">
<feFlood flood-opacity="0" result="BackgroundImageFix"/>
<feColorMatrix in="SourceAlpha" type="matrix" values="0 0 0 0 0 0 0 0 0 0 0 0 0 0 0 0 0 0 127 0"/>
<feOffset dy="12"/>
<feGaussianBlur stdDeviation="15"/>
<feColorMatrix type="matrix" values="0 0 0 0 0 0 0 0 0 0.694118 0 0 0 0 0.992157 0 0 0 0.2 0"/>
<feBlend mode="normal" in2="BackgroundImageFix" result="effect1_dropShadow"/>
<feBlend mode="normal" in="SourceGraphic" in2="effect1_dropShadow" result="shape"/>
</filter>
<filter id="filter2_d" x="428" y="457" width="206" height="177" filterUnits="userSpaceOnUse" color-interpolation-filters="sRGB">
<feFlood flood-opacity="0" result="BackgroundImageFix"/>
<feColorMatrix in="SourceAlpha" type="matrix" values="0 0 0 0 0 0 0 0 0 0 0 0 0 0 0 0 0 0 127 0"/>
<feOffset dy="12"/>
<feGaussianBlur stdDeviation="15"/>
<feColorMatrix type="matrix" values="0 0 0 0 0.878431 0 0 0 0 0.0509804 0 0 0 0 0.0745098 0 0 0 0.2 0"/>
<feBlend mode="normal" in2="BackgroundImageFix" result="effect1_dropShadow"/>
<feBlend mode="normal" in="SourceGraphic" in2="effect1_dropShadow" result="shape"/>
</filter>
<filter id="filter3_d" x="0" y="190" width="206" height="177" filterUnits="userSpaceOnUse" color-interpolation-filters="sRGB">
<feFlood flood-opacity="0" result="BackgroundImageFix"/>
<feColorMatrix in="SourceAlpha" type="matrix" values="0 0 0 0 0 0 0 0 0 0 0 0 0 0 0 0 0 0 127 0"/>
<feOffset dy="12"/>
<feGaussianBlur stdDeviation="15"/>
<feColorMatrix type="matrix" values="0 0 0 0 0.92549 0 0 0 0 0.733333 0 0 0 0 0.0745098 0 0 0 0.2 0"/>
<feBlend mode="normal" in2="BackgroundImageFix" result="effect1_dropShadow"/>
<feBlend mode="normal" in="SourceGraphic" in2="effect1_dropShadow" result="shape"/>
</filter>
<filter id="filter4_d" x="61" y="104" width="84" height="84" filterUnits="userSpaceOnUse" color-interpolation-filters="sRGB">
<feFlood flood-opacity="0" result="BackgroundImageFix"/>
<feColorMatrix in="SourceAlpha" type="matrix" values="0 0 0 0 0 0 0 0 0 0 0 0 0 0 0 0 0 0 127 0"/>
<feMorphology radius="24" operator="erode" in="SourceAlpha" result="effect1_dropShadow"/>
<feOffset dy="8"/>
<feGaussianBlur stdDeviation="18"/>
<feColorMatrix type="matrix" values="0 0 0 0 0.952941 0 0 0 0 0.917647 0 0 0 0 0.00784314 0 0 0 1 0"/>
<feBlend mode="normal" in2="BackgroundImageFix" result="effect1_dropShadow"/>
<feBlend mode="normal" in="SourceGraphic" in2="effect1_dropShadow" result="shape"/>
</filter>
<filter id="filter5_d" x="214" y="78" width="206" height="177" filterUnits="userSpaceOnUse" color-interpolation-filters="sRGB">
<feFlood flood-opacity="0" result="BackgroundImageFix"/>
<feColorMatrix in="SourceAlpha" type="matrix" values="0 0 0 0 0 0 0 0 0 0 0 0 0 0 0 0 0 0 127 0"/>
<feOffset dy="12"/>
<feGaussianBlur stdDeviation="15"/>
<feColorMatrix type="matrix" values="0 0 0 0 0.290196 0 0 0 0 0.290196 0 0 0 0 0.32549 0 0 0 0.2 0"/>
<feBlend mode="normal" in2="BackgroundImageFix" result="effect1_dropShadow"/>
<feBlend mode="normal" in="SourceGraphic" in2="effect1_dropShadow" result="shape"/>
</filter>
<filter id="filter6_d" x="428" y="190" width="206" height="177" filterUnits="userSpaceOnUse" color-interpolation-filters="sRGB">
<feFlood flood-opacity="0" result="BackgroundImageFix"/>
<feColorMatrix in="SourceAlpha" type="matrix" values="0 0 0 0 0 0 0 0 0 0 0 0 0 0 0 0 0 0 127 0"/>
<feOffset dy="12"/>
<feGaussianBlur stdDeviation="15"/>
<feColorMatrix type="matrix" values="0 0 0 0 0.00784314 0 0 0 0 0.909804 0 0 0 0 0.47451 0 0 0 0.2 0"/>
<feBlend mode="normal" in2="BackgroundImageFix" result="effect1_dropShadow"/>
<feBlend mode="normal" in="SourceGraphic" in2="effect1_dropShadow" result="shape"/>
</filter>
<linearGradient id="paint0_linear" x1="317" y1="364" x2="317" y2="411" gradientUnits="userSpaceOnUse">
<stop stop-color="white" stop-opacity="0"/>
<stop offset="1" stop-color="white"/>
</linearGradient>
<linearGradient id="paint1_linear" x1="317" y1="271.541" x2="317" y2="384.542" gradientUnits="userSpaceOnUse">
<stop stop-color="white" stop-opacity="0"/>
<stop offset="1" stop-color="white"/>
</linearGradient>
<linearGradient id="paint2_linear" x1="103" y1="495" x2="103" y2="543" gradientUnits="userSpaceOnUse">
<stop stop-color="white" stop-opacity="0"/>
<stop offset="1" stop-color="white"/>
</linearGradient>
<linearGradient id="paint3_linear" x1="103" y1="417.985" x2="103" y2="519.282" gradientUnits="userSpaceOnUse">
<stop stop-color="white" stop-opacity="0"/>
<stop offset="1" stop-color="white"/>
</linearGradient>
<linearGradient id="paint4_linear" x1="531" y1="495" x2="531" y2="543" gradientUnits="userSpaceOnUse">
<stop stop-color="white" stop-opacity="0"/>
<stop offset="1" stop-color="white"/>
</linearGradient>
<linearGradient id="paint5_linear" x1="531" y1="417.985" x2="531" y2="519.282" gradientUnits="userSpaceOnUse">
<stop stop-color="white" stop-opacity="0"/>
<stop offset="1" stop-color="white"/>
</linearGradient>
<linearGradient id="paint6_linear" x1="103" y1="228" x2="103" y2="276" gradientUnits="userSpaceOnUse">
<stop stop-color="white" stop-opacity="0"/>
<stop offset="1" stop-color="white"/>
</linearGradient>
<linearGradient id="paint7_linear" x1="103" y1="153.973" x2="103" y2="252.849" gradientUnits="userSpaceOnUse">
<stop stop-color="white" stop-opacity="0"/>
<stop offset="1" stop-color="white"/>
</linearGradient>
<linearGradient id="paint8_linear" x1="317" y1="115" x2="317" y2="163" gradientUnits="userSpaceOnUse">
<stop stop-color="white" stop-opacity="0"/>
<stop offset="1" stop-color="white"/>
</linearGradient>
<linearGradient id="paint9_linear" x1="317" y1="30.5135" x2="317" y2="137.865" gradientUnits="userSpaceOnUse">
<stop stop-color="white" stop-opacity="0"/>
<stop offset="1" stop-color="white"/>
</linearGradient>
<linearGradient id="paint10_linear" x1="531" y1="226" x2="531" y2="273" gradientUnits="userSpaceOnUse">
<stop stop-color="white" stop-opacity="0"/>
<stop offset="1" stop-color="white"/>
</linearGradient>
<linearGradient id="paint11_linear" x1="531" y1="140.514" x2="531" y2="247.865" gradientUnits="userSpaceOnUse">
<stop stop-color="white" stop-opacity="0"/>
<stop offset="1" stop-color="white"/>
</linearGradient>
<linearGradient id="paint12_linear" x1="541.185" y1="125.597" x2="526.927" y2="152.354" gradientUnits="userSpaceOnUse">
<stop stop-color="#00FFA3"/>
<stop offset="1" stop-color="#DC1FFF"/>
</linearGradient>
<linearGradient id="paint13_linear" x1="535.146" y1="122.379" x2="520.887" y2="149.136" gradientUnits="userSpaceOnUse">
<stop stop-color="#00FFA3"/>
<stop offset="1" stop-color="#DC1FFF"/>
</linearGradient>
<linearGradient id="paint14_linear" x1="538.147" y1="123.978" x2="523.888" y2="150.735" gradientUnits="userSpaceOnUse">
<stop stop-color="#00FFA3"/>
<stop offset="1" stop-color="#DC1FFF"/>
</linearGradient>
<clipPath id="clip0">
<rect width="33.3333" height="28.3333" fill="white" transform="translate(300.333 255.833)"/>
</clipPath>
<clipPath id="clip1">
<rect width="33.3333" height="33.3333" fill="white" transform="translate(86.3335 401.333)"/>
</clipPath>
<clipPath id="clip2">
<rect width="22.5" height="30.8333" fill="white" transform="translate(519.333 402.167)"/>
</clipPath>
<clipPath id="clip3">
<rect width="33.3333" height="33.3333" fill="white" transform="translate(86.3335 121.333)"/>
</clipPath>
<clipPath id="clip4">
<rect width="21.6667" height="35.8333" fill="white" transform="translate(306.167 12.5)"/>
</clipPath>
<clipPath id="clip5">
<rect width="25" height="20" fill="white" transform="translate(518.5 128)"/>
</clipPath>
</defs>
</svg>
