<svg width="391" height="367" viewBox="0 0 391 367" fill="none" xmlns="http://www.w3.org/2000/svg">
<path d="M183.5 276.5C234.862 276.5 276.5 234.862 276.5 183.5C276.5 132.138 234.862 90.5 183.5 90.5C132.138 90.5 90.5 132.138 90.5 183.5C90.5 234.862 132.138 276.5 183.5 276.5Z" stroke="#394057" stroke-width="3"/>
<path d="M183 321.5C259.491 321.5 321.5 259.715 321.5 183.5C321.5 107.285 259.491 45.5 183 45.5C106.509 45.5 44.5 107.285 44.5 183.5C44.5 259.715 106.509 321.5 183 321.5Z" stroke="#394057" stroke-width="3"/>
<path d="M183.5 365.5C284.016 365.5 365.5 284.016 365.5 183.5C365.5 82.9842 284.016 1.5 183.5 1.5C82.9842 1.5 1.5 82.9842 1.5 183.5C1.5 284.016 82.9842 365.5 183.5 365.5Z" stroke="#394057" stroke-width="3"/>
<path d="M167.159 247C162.614 247.018 158.26 248.832 155.046 252.046C151.832 255.26 150.018 259.614 150 264.159C149.999 266.053 150.302 267.935 150.9 269.733C151.116 270.321 151.55 270.805 152.111 271.083C152.673 271.362 153.319 271.416 153.919 271.233C154.499 271.011 154.973 270.576 155.244 270.018C155.515 269.459 155.563 268.818 155.378 268.225C154.87 266.825 154.643 265.339 154.71 263.851C154.783 261.452 155.552 259.126 156.923 257.157C158.294 255.187 160.208 253.658 162.432 252.757C164.656 251.855 167.095 251.62 169.45 252.079C171.806 252.538 173.977 253.672 175.7 255.343C177.423 257.013 178.622 259.149 179.153 261.489C179.684 263.83 179.524 266.274 178.691 268.525C177.858 270.775 176.388 272.735 174.461 274.166C172.535 275.597 170.233 276.436 167.838 276.583C167.838 276.583 165.429 276.73 164.231 276.876C163.789 276.939 163.351 277.027 162.919 277.137C162.904 277.152 162.887 277.163 162.868 277.171C162.848 277.179 162.828 277.184 162.807 277.184C162.786 277.184 162.766 277.179 162.746 277.171C162.727 277.163 162.71 277.152 162.695 277.137V277.137C162.674 277.11 162.662 277.076 162.662 277.041C162.662 277.006 162.674 276.972 162.695 276.945L163.068 274.911L165.33 264.737C165.395 264.435 165.399 264.123 165.343 263.819C165.287 263.516 165.172 263.226 165.004 262.967C164.836 262.707 164.619 262.484 164.365 262.308C164.11 262.133 163.824 262.01 163.522 261.945C163.22 261.88 162.908 261.876 162.604 261.932C162.301 261.988 162.011 262.103 161.752 262.271C161.492 262.439 161.269 262.656 161.093 262.91C160.918 263.165 160.795 263.451 160.73 263.753C160.73 263.753 155.35 288.653 155.35 288.882C155.202 289.463 155.291 290.079 155.597 290.594C155.903 291.109 156.401 291.482 156.982 291.63C156.995 291.634 157.008 291.637 157.022 291.639H157.147C157.727 291.789 158.343 291.702 158.86 291.398C159.376 291.093 159.75 290.596 159.9 290.016C159.906 289.996 159.91 289.975 159.914 289.954C159.91 289.917 159.91 289.879 159.914 289.842C159.981 289.549 160.66 286.235 160.66 286.235C160.911 285.015 161.53 283.9 162.434 283.042C163.337 282.184 164.481 281.623 165.713 281.435C166.232 281.355 168.413 281.209 168.413 281.209C172.762 280.787 176.785 278.72 179.662 275.432C182.539 272.143 184.051 267.88 183.891 263.514C183.731 259.148 181.911 255.007 178.801 251.938C175.691 248.869 171.527 247.103 167.159 247V247Z" fill="white"/>
<path d="M168.2 286.565C167.832 286.488 167.453 286.485 167.084 286.555C166.715 286.625 166.364 286.767 166.05 286.973C165.736 287.179 165.465 287.445 165.254 287.755C165.043 288.065 164.894 288.414 164.818 288.782C164.818 288.796 164.813 288.811 164.809 288.825C164.729 289.191 164.722 289.568 164.789 289.936C164.855 290.305 164.993 290.656 165.195 290.971C165.397 291.286 165.66 291.558 165.967 291.771C166.274 291.985 166.62 292.135 166.986 292.215C166.988 292.214 166.989 292.214 166.991 292.215H167.071C167.429 292.302 167.8 292.317 168.164 292.26C168.528 292.203 168.877 292.075 169.191 291.883C169.505 291.691 169.778 291.439 169.995 291.141C170.211 290.843 170.367 290.506 170.453 290.148C170.453 290.137 170.458 290.124 170.462 290.114V289.959C170.591 289.211 170.428 288.443 170.007 287.811C169.587 287.18 168.94 286.734 168.2 286.565V286.565Z" fill="#E6007A"/>
<path d="M171.919 51.07C172.028 50.9608 172.158 50.8742 172.301 50.8152C172.444 50.7562 172.596 50.7259 172.751 50.726H201.444C201.56 50.7267 201.672 50.7614 201.768 50.8258C201.864 50.8902 201.939 50.9814 201.983 51.0881C202.028 51.1948 202.04 51.3122 202.018 51.4256C201.996 51.5391 201.941 51.6435 201.86 51.726L196.192 57.394C196.083 57.5032 195.953 57.5897 195.81 57.6488C195.667 57.7078 195.514 57.7381 195.36 57.738H166.666C166.55 57.7373 166.438 57.7026 166.342 57.6382C166.246 57.5738 166.171 57.4825 166.127 57.3758C166.082 57.2692 166.07 57.1518 166.092 57.0383C166.114 56.9249 166.169 56.8204 166.25 56.738L171.919 51.07Z" fill="url(#paint0_linear)"/>
<path d="M171.919 29.907C172.141 29.6897 172.439 29.5665 172.75 29.563H201.444C201.56 29.5637 201.672 29.5984 201.768 29.6628C201.864 29.7272 201.939 29.8185 201.983 29.9251C202.028 30.0318 202.04 30.1492 202.018 30.2626C201.996 30.3761 201.941 30.4806 201.86 30.563L196.192 36.235C196.083 36.3442 195.953 36.4307 195.81 36.4898C195.667 36.5488 195.514 36.5791 195.36 36.579H166.666C166.55 36.5783 166.438 36.5436 166.342 36.4792C166.246 36.4148 166.171 36.3235 166.127 36.2168C166.082 36.1102 166.07 35.9928 166.092 35.8793C166.114 35.7659 166.169 35.6614 166.25 35.579L171.919 29.907Z" fill="url(#paint1_linear)"/>
<path d="M196.192 40.421C196.083 40.3118 195.953 40.2252 195.81 40.1662C195.667 40.1072 195.514 40.0769 195.36 40.077H166.666C166.55 40.0777 166.438 40.1124 166.342 40.1768C166.246 40.2412 166.171 40.3325 166.127 40.4391C166.082 40.5458 166.07 40.6632 166.092 40.7767C166.114 40.8901 166.169 40.9946 166.25 41.077L171.919 46.749C172.028 46.8582 172.158 46.9447 172.301 47.0038C172.444 47.0628 172.596 47.0931 172.751 47.093H201.444C201.56 47.0923 201.672 47.0576 201.768 46.9932C201.864 46.9288 201.939 46.8375 201.983 46.7309C202.028 46.6242 202.04 46.5068 202.018 46.3933C201.996 46.2799 201.941 46.1754 201.86 46.093L196.192 40.421Z" fill="url(#paint2_linear)"/>
<path d="M366.5 204C380.031 204 391 192.807 391 179C391 165.193 380.031 154 366.5 154C352.969 154 342 165.193 342 179C342 192.807 352.969 204 366.5 204Z" fill="#2E3148"/>
<path d="M366.326 193.472C374.177 193.472 380.541 187.108 380.541 179.257C380.541 171.406 374.177 165.042 366.326 165.042C358.475 165.042 352.111 171.406 352.111 179.257C352.111 187.108 358.475 193.472 366.326 193.472Z" fill="#1B1E36"/>
<path d="M366.375 157.884C363.731 157.884 361.586 167.475 361.586 179.307C361.586 191.139 363.731 200.732 366.375 200.732C369.019 200.732 371.164 191.141 371.164 179.309C371.164 167.477 369.02 157.884 366.375 157.884ZM366.706 199.521C366.679 199.574 366.64 199.619 366.592 199.654C366.545 199.689 366.489 199.712 366.431 199.722C366.373 199.731 366.313 199.727 366.257 199.71C366.2 199.692 366.149 199.662 366.106 199.621C365.239 198.409 364.618 197.039 364.279 195.588C362.144 188.732 362.655 174.015 362.655 174.015C363.655 162.332 365.473 159.569 366.093 158.956C366.156 158.893 366.24 158.855 366.328 158.848C366.417 158.841 366.505 158.865 366.578 158.917C367.478 159.554 368.231 162.217 368.231 162.217C369.591 167.452 370.271 172.84 370.255 178.248C370.296 183.043 369.923 187.833 369.139 192.564C368.126 198.31 366.706 199.521 366.706 199.521Z" fill="#6F7390"/>
<path d="M384.958 168.645C383.641 166.35 374.258 169.264 363.988 175.152C353.718 181.04 346.478 187.673 347.795 189.964C349.112 192.255 358.495 189.345 368.765 183.457C379.035 177.569 386.275 170.936 384.96 168.642L384.958 168.645ZM349.008 189.652C348.508 189.589 348.618 189.174 348.618 189.174C349.237 187.82 350.116 186.6 351.204 185.583C356.095 180.324 369.113 173.439 369.113 173.439C379.746 168.492 383.049 168.701 383.886 168.931C383.971 168.955 384.045 169.008 384.096 169.081C384.146 169.154 384.168 169.243 384.16 169.331C384.06 170.431 382.118 172.408 382.118 172.408C378.257 176.195 373.924 179.467 369.226 182.145C365.088 184.569 360.748 186.629 356.254 188.304C350.765 190.282 349.009 189.652 349.009 189.652H349.008Z" fill="#6F7390"/>
<path d="M384.912 190.044C386.239 187.756 379.012 181.092 368.783 175.16C358.554 169.228 349.166 166.278 347.84 168.57C346.514 170.862 353.74 177.522 363.975 183.454C374.21 189.386 383.586 192.336 384.912 190.044ZM348.72 169.452C348.687 169.402 348.667 169.344 348.661 169.285C348.654 169.225 348.662 169.165 348.683 169.108C348.704 169.052 348.738 169.002 348.783 168.961C348.827 168.921 348.88 168.891 348.938 168.875C350.419 168.733 351.914 168.883 353.338 169.317C360.338 170.911 372.819 178.729 372.819 178.729C382.432 185.452 383.903 188.419 384.127 189.259C384.149 189.345 384.141 189.437 384.102 189.517C384.064 189.598 383.998 189.662 383.917 189.699C382.917 190.158 380.231 189.474 380.231 189.474C375.02 188.027 370.016 185.916 365.344 183.192C361.175 180.827 357.22 178.103 353.523 175.052C349.057 171.292 348.723 169.458 348.723 169.458L348.72 169.452Z" fill="#6F7390"/>
<path d="M366.325 181.776C367.717 181.776 368.845 180.648 368.845 179.256C368.845 177.864 367.717 176.736 366.325 176.736C364.933 176.736 363.805 177.864 363.805 179.256C363.805 180.648 364.933 181.776 366.325 181.776Z" fill="#B7B9C8"/>
<path d="M376.659 171.09C377.466 171.09 378.121 170.413 378.121 169.578C378.121 168.743 377.466 168.066 376.659 168.066C375.851 168.066 375.197 168.743 375.197 169.578C375.197 170.413 375.851 171.09 376.659 171.09Z" fill="#B7B9C8"/>
<path d="M352.665 176.232C353.472 176.232 354.127 175.555 354.127 174.72C354.127 173.885 353.472 173.208 352.665 173.208C351.858 173.208 351.203 173.885 351.203 174.72C351.203 175.555 351.858 176.232 352.665 176.232Z" fill="#B7B9C8"/>
<path d="M363.352 194.781C364.159 194.781 364.814 194.104 364.814 193.269C364.814 192.434 364.159 191.757 363.352 191.757C362.545 191.757 361.89 192.434 361.89 193.269C361.89 194.104 362.545 194.781 363.352 194.781Z" fill="#B7B9C8"/>
<path d="M291.124 253.667C291.077 254.531 291.374 255.379 291.951 256.024C292.528 256.669 293.338 257.058 294.202 257.107H294.398C295.036 257.105 295.66 256.916 296.191 256.564C296.723 256.211 297.14 255.711 297.391 255.124C297.642 254.537 297.715 253.889 297.601 253.262C297.488 252.634 297.194 252.053 296.754 251.59C296.314 251.128 295.748 250.804 295.127 250.66C294.505 250.515 293.855 250.556 293.257 250.777C292.658 250.998 292.137 251.389 291.758 251.903C291.38 252.417 291.16 253.03 291.126 253.667H291.124Z" fill="white"/>
<path d="M278.941 252.825C278.732 252.814 278.526 252.866 278.346 252.972C278.167 253.079 278.023 253.237 277.933 253.425C277.843 253.614 277.811 253.824 277.841 254.031C277.871 254.237 277.962 254.431 278.101 254.586C278.241 254.741 278.423 254.851 278.626 254.903C278.828 254.954 279.041 254.945 279.238 254.876C279.435 254.806 279.606 254.68 279.732 254.513C279.857 254.346 279.93 254.145 279.941 253.937C279.95 253.798 279.93 253.659 279.885 253.527C279.839 253.396 279.767 253.275 279.674 253.171C279.581 253.068 279.468 252.984 279.342 252.924C279.217 252.865 279.08 252.831 278.941 252.825V252.825Z" fill="white"/>
<path d="M290.917 234.706C291.041 234.643 291.151 234.557 291.242 234.451C291.333 234.346 291.401 234.223 291.445 234.091C291.488 233.959 291.505 233.82 291.494 233.681C291.484 233.542 291.446 233.407 291.383 233.283C291.32 233.159 291.233 233.049 291.128 232.958C291.022 232.867 290.9 232.799 290.768 232.755C290.636 232.712 290.496 232.695 290.358 232.706C290.219 232.716 290.084 232.754 289.96 232.817C289.712 232.943 289.523 233.162 289.436 233.426C289.348 233.69 289.369 233.978 289.494 234.227C289.554 234.353 289.639 234.466 289.744 234.559C289.849 234.652 289.971 234.723 290.104 234.768C290.237 234.812 290.377 234.83 290.517 234.819C290.656 234.809 290.792 234.77 290.917 234.706V234.706Z" fill="white"/>
<path d="M294.228 240.487C294.516 240.342 294.754 240.116 294.913 239.836C295.072 239.556 295.144 239.235 295.12 238.914C295.097 238.593 294.979 238.286 294.781 238.032C294.583 237.778 294.314 237.588 294.009 237.487C293.703 237.386 293.374 237.377 293.064 237.463C292.753 237.549 292.475 237.724 292.265 237.968C292.054 238.212 291.921 238.512 291.881 238.832C291.842 239.151 291.897 239.475 292.042 239.763C292.237 240.148 292.576 240.441 292.985 240.576C293.395 240.712 293.842 240.68 294.228 240.487Z" fill="white"/>
<path d="M283.079 244.453C283.301 244.599 283.562 244.675 283.828 244.673C284.094 244.671 284.354 244.589 284.573 244.44C284.793 244.29 284.964 244.078 285.063 243.831C285.163 243.585 285.187 243.314 285.133 243.054C285.079 242.793 284.948 242.555 284.758 242.368C284.569 242.182 284.328 242.056 284.066 242.007C283.805 241.957 283.535 241.986 283.29 242.09C283.045 242.194 282.837 242.369 282.691 242.591V242.591C282.593 242.739 282.526 242.904 282.493 243.078C282.459 243.251 282.461 243.43 282.497 243.603C282.533 243.776 282.603 243.94 282.703 244.086C282.803 244.232 282.931 244.357 283.079 244.453V244.453Z" fill="white"/>
<path d="M285.058 252.243C284.736 252.225 284.415 252.303 284.137 252.467C283.859 252.632 283.636 252.874 283.497 253.165C283.357 253.456 283.306 253.782 283.352 254.102C283.397 254.421 283.536 254.72 283.751 254.961C283.966 255.201 284.248 255.373 284.561 255.453C284.873 255.533 285.203 255.519 285.507 255.413C285.812 255.306 286.078 255.111 286.272 254.853C286.466 254.595 286.579 254.285 286.597 253.963V253.963C286.621 253.531 286.472 253.107 286.183 252.785C285.895 252.462 285.49 252.267 285.058 252.243Z" fill="white"/>
<path d="M283.26 263.198C283.022 263.318 282.825 263.506 282.694 263.739C282.563 263.971 282.504 264.237 282.524 264.502C282.544 264.768 282.642 265.022 282.807 265.232C282.971 265.442 283.194 265.599 283.447 265.682C283.7 265.765 283.973 265.771 284.23 265.7C284.486 265.628 284.716 265.482 284.89 265.28C285.064 265.078 285.174 264.829 285.206 264.564C285.238 264.299 285.191 264.031 285.071 263.793V263.793C284.909 263.475 284.627 263.234 284.288 263.122C283.949 263.011 283.579 263.038 283.26 263.198V263.198Z" fill="white"/>
<path d="M289.597 248.868C289.914 249.075 290.286 249.184 290.665 249.18C291.044 249.176 291.413 249.06 291.726 248.847C292.039 248.633 292.282 248.331 292.423 247.979C292.564 247.628 292.598 247.242 292.521 246.871C292.443 246.5 292.257 246.161 291.986 245.895C291.715 245.63 291.372 245.451 290.999 245.381C290.627 245.311 290.242 245.353 289.893 245.502C289.545 245.651 289.248 245.9 289.041 246.217C288.901 246.427 288.805 246.663 288.757 246.91C288.71 247.158 288.712 247.412 288.764 247.659C288.815 247.906 288.916 248.14 289.059 248.347C289.202 248.555 289.385 248.732 289.597 248.868V248.868Z" fill="white"/>
<path d="M309.707 240.357C309.977 240.535 310.293 240.629 310.617 240.626C310.94 240.624 311.255 240.526 311.523 240.345C311.79 240.164 311.998 239.907 312.12 239.608C312.241 239.308 312.271 238.979 312.206 238.663C312.141 238.346 311.983 238.056 311.753 237.829C311.523 237.602 311.231 237.449 310.914 237.388C310.596 237.327 310.268 237.361 309.97 237.487C309.672 237.613 309.419 237.824 309.241 238.094V238.094C309.121 238.272 309.037 238.473 308.995 238.684C308.954 238.895 308.955 239.113 308.998 239.324C309.041 239.534 309.126 239.734 309.248 239.912C309.37 240.089 309.526 240.241 309.707 240.357V240.357Z" fill="white"/>
<path d="M313.045 234.602C313.22 234.714 313.425 234.772 313.633 234.769C313.841 234.765 314.043 234.7 314.214 234.582C314.386 234.463 314.518 234.297 314.595 234.104C314.672 233.911 314.691 233.699 314.648 233.495C314.605 233.292 314.503 233.105 314.354 232.959C314.206 232.814 314.018 232.715 313.813 232.676C313.609 232.636 313.398 232.658 313.206 232.739C313.014 232.819 312.85 232.955 312.735 233.128C312.587 233.366 312.536 233.653 312.594 233.927C312.652 234.202 312.813 234.444 313.045 234.602V234.602Z" fill="white"/>
<path d="M309.955 250.55C309.527 250.526 309.098 250.587 308.694 250.729C308.29 250.871 307.917 251.091 307.597 251.377C307.278 251.662 307.018 252.008 306.832 252.395C306.647 252.781 306.539 253.2 306.515 253.628C306.491 254.056 306.552 254.484 306.694 254.889C306.836 255.293 307.056 255.666 307.341 255.986C307.627 256.305 307.973 256.565 308.36 256.751C308.746 256.936 309.165 257.044 309.593 257.068H309.769C310.616 257.064 311.427 256.731 312.033 256.139C312.638 255.547 312.99 254.743 313.014 253.897C313.037 253.05 312.731 252.228 312.159 251.603C311.587 250.979 310.795 250.601 309.95 250.55H309.955Z" fill="white"/>
<path d="M295.301 248.635C295.593 249.211 296.049 249.687 296.612 250.004C297.175 250.321 297.819 250.464 298.462 250.415C299.106 250.366 299.721 250.127 300.23 249.729C300.738 249.331 301.117 248.792 301.319 248.178C301.521 247.565 301.537 246.906 301.364 246.283C301.192 245.661 300.839 245.104 300.35 244.682C299.861 244.26 299.259 243.993 298.618 243.913C297.977 243.833 297.327 243.946 296.75 244.235C296.366 244.429 296.023 244.696 295.742 245.022C295.462 245.348 295.248 245.726 295.113 246.135C294.979 246.543 294.926 246.974 294.958 247.404C294.99 247.833 295.107 248.251 295.301 248.635Z" fill="white"/>
<path d="M320.896 244.458C321.131 244.336 321.325 244.147 321.453 243.915C321.582 243.683 321.638 243.419 321.617 243.154C321.595 242.89 321.496 242.638 321.332 242.431C321.167 242.223 320.945 242.068 320.693 241.986C320.441 241.903 320.171 241.897 319.916 241.969C319.66 242.04 319.432 242.185 319.258 242.385C319.085 242.586 318.975 242.833 318.942 243.096C318.909 243.359 318.954 243.626 319.072 243.863C319.237 244.182 319.521 244.423 319.862 244.534C320.203 244.645 320.575 244.618 320.896 244.458V244.458Z" fill="white"/>
<path d="M312.619 245.493C312.28 245.663 311.999 245.93 311.812 246.26C311.625 246.589 311.54 246.967 311.567 247.345C311.595 247.723 311.734 248.085 311.967 248.384C312.199 248.683 312.516 248.906 312.876 249.026C313.235 249.145 313.623 249.155 313.988 249.054C314.353 248.954 314.681 248.747 314.929 248.46C315.177 248.174 315.334 247.82 315.381 247.444C315.428 247.068 315.363 246.686 315.193 246.347C314.965 245.893 314.565 245.547 314.083 245.387C313.6 245.227 313.074 245.265 312.619 245.493V245.493Z" fill="white"/>
<path d="M301.945 234.111C302.301 234.128 302.649 234.004 302.915 233.767C303.181 233.531 303.343 233.199 303.368 232.844C303.382 232.492 303.257 232.149 303.021 231.888C302.785 231.627 302.456 231.469 302.105 231.447C301.754 231.425 301.408 231.541 301.141 231.771C300.874 232 300.708 232.325 300.678 232.676C300.659 233.033 300.781 233.384 301.018 233.652C301.255 233.921 301.588 234.085 301.945 234.111Z" fill="white"/>
<path d="M301.933 242.556C302.312 242.576 302.688 242.484 303.014 242.291C303.34 242.097 303.601 241.812 303.765 241.47C303.929 241.128 303.988 240.745 303.934 240.37C303.88 239.995 303.716 239.644 303.463 239.361C303.21 239.079 302.878 238.879 302.511 238.785C302.144 238.691 301.757 238.708 301.399 238.834C301.042 238.96 300.73 239.189 300.502 239.492C300.275 239.795 300.142 240.159 300.122 240.538C300.106 240.79 300.14 241.043 300.223 241.281C300.306 241.52 300.435 241.739 300.604 241.927C300.773 242.115 300.977 242.267 301.205 242.375C301.433 242.483 301.681 242.545 301.933 242.556V242.556Z" fill="white"/>
<path d="M291.538 262.163C291.877 261.993 292.157 261.726 292.345 261.397C292.532 261.067 292.617 260.689 292.59 260.311C292.562 259.933 292.423 259.571 292.19 259.272C291.957 258.973 291.641 258.75 291.281 258.63C290.922 258.511 290.534 258.501 290.169 258.602C289.803 258.702 289.476 258.909 289.228 259.196C288.98 259.482 288.822 259.836 288.775 260.212C288.728 260.589 288.794 260.97 288.964 261.309C289.192 261.764 289.591 262.109 290.074 262.269C290.557 262.429 291.083 262.391 291.538 262.163V262.163Z" fill="white"/>
<path d="M303.177 245.363C302.778 245.971 302.594 246.694 302.653 247.418C302.711 248.143 303.01 248.827 303.502 249.362C303.993 249.897 304.649 250.254 305.366 250.374C306.083 250.494 306.819 250.372 307.459 250.027C308.098 249.681 308.604 249.133 308.896 248.467C309.188 247.802 309.25 247.058 309.072 246.353C308.894 245.649 308.486 245.024 307.912 244.577C307.339 244.131 306.633 243.889 305.906 243.889C305.364 243.888 304.831 244.023 304.355 244.28C303.878 244.538 303.473 244.91 303.177 245.363V245.363Z" fill="white"/>
<path d="M308.856 259.021C308.566 258.444 308.111 257.966 307.549 257.648C306.988 257.33 306.344 257.185 305.7 257.232C305.056 257.28 304.441 257.517 303.932 257.914C303.422 258.311 303.042 258.85 302.84 259.463C302.637 260.076 302.62 260.735 302.792 261.358C302.964 261.98 303.316 262.537 303.805 262.959C304.294 263.381 304.897 263.649 305.537 263.729C306.178 263.808 306.828 263.696 307.405 263.406V263.406C307.787 263.216 308.128 262.952 308.408 262.63C308.689 262.308 308.903 261.934 309.039 261.529C309.174 261.124 309.229 260.697 309.199 260.271C309.17 259.845 309.056 259.429 308.866 259.047C308.869 259.034 308.869 259.034 308.856 259.021Z" fill="white"/>
<path d="M314.559 258.788C314.242 258.581 313.87 258.472 313.491 258.476C313.112 258.48 312.743 258.596 312.43 258.81C312.117 259.023 311.874 259.325 311.733 259.677C311.591 260.028 311.558 260.414 311.635 260.785C311.713 261.156 311.899 261.495 312.17 261.761C312.441 262.026 312.784 262.205 313.157 262.275C313.529 262.345 313.914 262.303 314.263 262.154C314.611 262.005 314.908 261.756 315.115 261.439C315.255 261.229 315.351 260.993 315.399 260.746C315.446 260.498 315.444 260.244 315.392 259.997C315.341 259.75 315.24 259.516 315.097 259.309C314.954 259.101 314.771 258.924 314.559 258.788V258.788Z" fill="white"/>
<path d="M320.818 253.887C320.836 253.565 320.758 253.244 320.594 252.966C320.429 252.689 320.187 252.466 319.896 252.326C319.605 252.186 319.279 252.135 318.959 252.181C318.64 252.226 318.341 252.365 318.1 252.58C317.86 252.796 317.688 253.077 317.608 253.39C317.528 253.702 317.542 254.032 317.648 254.337C317.755 254.641 317.95 254.907 318.208 255.101C318.466 255.295 318.776 255.408 319.098 255.426C319.529 255.447 319.952 255.298 320.274 255.01C320.596 254.722 320.791 254.318 320.818 253.887V253.887Z" fill="white"/>
<path d="M325.332 252.722C325.123 252.711 324.917 252.763 324.737 252.869C324.558 252.976 324.414 253.134 324.324 253.322C324.234 253.511 324.202 253.721 324.232 253.928C324.262 254.134 324.353 254.328 324.492 254.483C324.632 254.638 324.814 254.748 325.017 254.8C325.219 254.851 325.432 254.842 325.629 254.773C325.826 254.703 325.997 254.577 326.123 254.41C326.248 254.243 326.321 254.042 326.332 253.834C326.345 253.554 326.247 253.281 326.06 253.073C325.873 252.865 325.611 252.739 325.332 252.722V252.722Z" fill="white"/>
<path d="M321.077 263.198C320.854 263.052 320.594 262.976 320.328 262.978C320.062 262.981 319.802 263.062 319.582 263.212C319.363 263.361 319.192 263.573 319.093 263.82C318.993 264.066 318.969 264.337 319.023 264.597C319.077 264.858 319.208 265.096 319.397 265.283C319.587 265.469 319.828 265.595 320.089 265.645C320.351 265.694 320.621 265.665 320.866 265.561C321.111 265.457 321.319 265.283 321.465 265.06C321.562 264.913 321.63 264.747 321.663 264.574C321.696 264.4 321.695 264.221 321.659 264.048C321.623 263.875 321.553 263.711 321.453 263.565C321.353 263.419 321.225 263.294 321.077 263.198V263.198Z" fill="white"/>
<path d="M291.098 273.053C290.924 272.938 290.719 272.877 290.511 272.879C290.302 272.88 290.098 272.943 289.926 273.06C289.753 273.177 289.618 273.343 289.54 273.536C289.461 273.729 289.442 273.941 289.484 274.146C289.525 274.35 289.627 274.538 289.776 274.684C289.924 274.831 290.113 274.93 290.318 274.97C290.523 275.009 290.735 274.987 290.927 274.906C291.119 274.825 291.283 274.688 291.398 274.514C291.476 274.399 291.531 274.27 291.558 274.133C291.586 273.997 291.585 273.856 291.557 273.72C291.529 273.584 291.474 273.454 291.395 273.34C291.316 273.225 291.215 273.128 291.098 273.053V273.053Z" fill="white"/>
<path d="M313.239 272.949C312.989 273.076 312.799 273.297 312.712 273.564C312.624 273.831 312.647 274.121 312.773 274.372C312.9 274.622 313.122 274.812 313.388 274.899C313.655 274.986 313.946 274.964 314.196 274.837C314.446 274.71 314.636 274.489 314.723 274.222C314.811 273.955 314.788 273.665 314.661 273.415C314.535 273.164 314.313 272.975 314.047 272.887C313.78 272.8 313.489 272.822 313.239 272.949V272.949Z" fill="white"/>
<path d="M300.979 262.293C301.333 261.752 301.519 261.118 301.513 260.471C301.507 259.825 301.31 259.194 300.945 258.66C300.581 258.125 300.067 257.711 299.467 257.469C298.867 257.227 298.209 257.168 297.576 257.3C296.943 257.432 296.363 257.749 295.91 258.211C295.457 258.672 295.151 259.258 295.03 259.893C294.91 260.529 294.981 261.185 295.234 261.781C295.487 262.376 295.911 262.883 296.452 263.237C297.178 263.71 298.062 263.875 298.91 263.699C299.758 263.522 300.502 263.016 300.979 262.293V262.293Z" fill="white"/>
<path d="M294.448 267.298C294.178 267.12 293.861 267.027 293.538 267.029C293.215 267.031 292.9 267.129 292.632 267.31C292.365 267.491 292.157 267.748 292.035 268.047C291.914 268.347 291.883 268.676 291.949 268.992C292.014 269.309 292.171 269.599 292.402 269.826C292.632 270.053 292.924 270.206 293.241 270.267C293.559 270.328 293.887 270.294 294.185 270.168C294.482 270.042 294.736 269.831 294.914 269.561V269.561C295.034 269.383 295.117 269.182 295.159 268.971C295.2 268.76 295.2 268.542 295.156 268.332C295.113 268.121 295.028 267.921 294.906 267.744C294.785 267.566 294.629 267.415 294.448 267.298V267.298Z" fill="white"/>
<path d="M302.065 273.545C301.799 273.529 301.535 273.593 301.306 273.727C301.076 273.861 300.892 274.061 300.775 274.3C300.659 274.539 300.615 274.807 300.651 275.07C300.687 275.334 300.8 275.581 300.976 275.78C301.151 275.98 301.382 276.123 301.639 276.191C301.896 276.26 302.168 276.251 302.42 276.165C302.671 276.079 302.892 275.921 303.054 275.71C303.216 275.499 303.312 275.245 303.33 274.98C303.35 274.622 303.228 274.271 302.991 274.002C302.754 273.733 302.421 273.569 302.063 273.544L302.065 273.545Z" fill="white"/>
<path d="M302.078 265.099C301.699 265.079 301.323 265.171 300.997 265.364C300.671 265.558 300.41 265.843 300.246 266.185C300.082 266.527 300.023 266.91 300.077 267.285C300.131 267.661 300.295 268.011 300.548 268.294C300.801 268.576 301.132 268.777 301.5 268.87C301.867 268.964 302.254 268.947 302.612 268.821C302.969 268.695 303.281 268.466 303.509 268.163C303.736 267.86 303.868 267.496 303.889 267.117C303.905 266.865 303.87 266.613 303.788 266.374C303.705 266.136 303.575 265.916 303.407 265.728C303.238 265.54 303.034 265.388 302.806 265.28C302.578 265.172 302.33 265.11 302.078 265.099V265.099Z" fill="white"/>
<path d="M309.933 267.169C309.647 267.317 309.41 267.546 309.254 267.827C309.097 268.109 309.028 268.431 309.053 268.752C309.079 269.073 309.199 269.379 309.399 269.632C309.598 269.885 309.868 270.074 310.174 270.174C310.48 270.274 310.809 270.282 311.119 270.196C311.43 270.109 311.708 269.933 311.918 269.69C312.129 269.446 312.263 269.145 312.303 268.826C312.344 268.506 312.289 268.181 312.145 267.893C312.048 267.699 311.914 267.526 311.75 267.385C311.587 267.243 311.396 267.136 311.19 267.068C310.985 267.001 310.767 266.975 310.552 266.992C310.336 267.01 310.125 267.07 309.933 267.169V267.169Z" fill="white"/>
<path d="M61.057 146.587C59.257 144.922 56.757 142.38 54.729 140.578L54.609 140.494C54.409 140.333 54.1836 140.207 53.942 140.121V140.121C49.044 139.208 26.25 134.947 25.805 135.001C25.6803 135.018 25.561 135.063 25.456 135.133L25.342 135.223C25.2019 135.365 25.0956 135.538 25.031 135.728L25 135.806V136.301C27.566 143.446 37.7 166.853 39.693 172.346C39.813 172.719 40.042 173.428 40.468 173.464H40.568C40.796 173.464 41.768 172.178 41.768 172.178C41.768 172.178 59.17 151.07 60.931 148.823C61.1586 148.546 61.3595 148.248 61.531 147.934C61.5751 147.687 61.5547 147.434 61.4716 147.198C61.3885 146.961 61.2457 146.751 61.057 146.587V146.587ZM46.231 149.045L53.659 142.885L58.016 146.901L46.231 149.045ZM43.346 148.645L30.559 138.162L51.249 141.978L43.346 148.645ZM44.5 151.391L57.589 149.282L42.626 167.308L44.5 151.391ZM28.822 139.208L42.277 150.626L40.331 167.32L28.822 139.208Z" fill="#FF060A"/>
<path d="M237.537 129.5L231.983 135.032L226.428 129.5L231.983 123.969L237.537 129.5ZM251.028 116.064L260.55 125.547L266.105 120.014L251.028 105L235.95 120.016L241.505 125.549L251.028 116.064ZM270.071 123.964L264.513 129.5L270.068 135.031L275.622 129.5L270.071 123.964ZM251.028 142.938L241.506 133.451L235.95 138.984L251.028 154L266.103 138.984L260.548 133.451L251.028 142.938ZM251.028 135.038L256.581 129.5L251.028 123.969L245.471 129.5L251.028 135.038Z" fill="#F0B90B"/>
<defs>
<linearGradient id="paint0_linear" x1="198.685" y1="61.3281" x2="197.923" y2="22.9301" gradientUnits="userSpaceOnUse">
<stop stop-color="#00FFA3"/>
<stop offset="1" stop-color="#DC1FFF"/>
</linearGradient>
<linearGradient id="paint1_linear" x1="190.022" y1="65.8708" x2="189.259" y2="27.4509" gradientUnits="userSpaceOnUse">
<stop stop-color="#00FFA3"/>
<stop offset="1" stop-color="#DC1FFF"/>
</linearGradient>
<linearGradient id="paint2_linear" x1="194.336" y1="63.6227" x2="193.572" y2="25.1959" gradientUnits="userSpaceOnUse">
<stop stop-color="#00FFA3"/>
<stop offset="1" stop-color="#DC1FFF"/>
</linearGradient>
</defs>
</svg>
