<svg width="901" height="689" viewBox="0 0 901 689" fill="none" xmlns="http://www.w3.org/2000/svg">
<g filter="url(#filter0_d)">
<path d="M414.5 270.186L350.926 234.756C341.35 229.419 341.345 215.645 350.918 210.302L364 203" stroke="url(#paint0_linear)"/>
<path d="M463 438L584.5 508.5" stroke="url(#paint1_linear)"/>
<path d="M585 559.5L378 682" stroke="url(#paint2_linear)"/>
<path d="M548 343.5L602.5 310.5" stroke="url(#paint3_linear)"/>
<line x1="313.254" y1="486.43" x2="269.254" y2="512.43" stroke="url(#paint4_linear)"/>
<path d="M415.261 274.46C419.432 272.056 424.568 272.056 428.739 274.46L641.942 397.292C650.903 402.455 650.969 415.363 642.061 420.617L428.859 546.374C424.627 548.87 419.373 548.87 415.141 546.374L201.939 420.617C193.031 415.363 193.097 402.455 202.058 397.292L415.261 274.46Z" stroke="url(#paint5_linear)"/>
<path d="M169 318L21.7874 403.619C12.3995 409.079 12.5334 422.685 22.027 427.959L140 493.5" stroke="url(#paint6_linear)"/>
<path d="M558.5 343C558.5 344.725 557.502 346.338 555.784 347.54C554.068 348.741 551.671 349.5 549 349.5C546.329 349.5 543.932 348.741 542.216 347.54C540.498 346.338 539.5 344.725 539.5 343C539.5 341.275 540.498 339.662 542.216 338.46C543.932 337.259 546.329 336.5 549 336.5C551.671 336.5 554.068 337.259 555.784 338.46C557.502 339.662 558.5 341.275 558.5 343Z" fill="#141416" stroke="#2A2E32"/>
<ellipse cx="549" cy="343" rx="4" ry="2" fill="#35DFB1"/>
<path d="M377.5 201C377.5 202.725 376.502 204.338 374.784 205.54C373.068 206.741 370.671 207.5 368 207.5C365.329 207.5 362.932 206.741 361.216 205.54C359.498 204.338 358.5 202.725 358.5 201C358.5 199.275 359.498 197.662 361.216 196.46C362.932 195.259 365.329 194.5 368 194.5C370.671 194.5 373.068 195.259 374.784 196.46C376.502 197.662 377.5 199.275 377.5 201Z" fill="#141416" stroke="#2A2E32"/>
<ellipse cx="368" cy="201" rx="4" ry="2" fill="#35DFB1"/>
<path d="M147.5 492C147.5 493.725 146.502 495.338 144.784 496.54C143.068 497.741 140.671 498.5 138 498.5C135.329 498.5 132.932 497.741 131.216 496.54C129.498 495.338 128.5 493.725 128.5 492C128.5 490.275 129.498 488.662 131.216 487.46C132.932 486.259 135.329 485.5 138 485.5C140.671 485.5 143.068 486.259 144.784 487.46C146.502 488.662 147.5 490.275 147.5 492Z" fill="#141416" stroke="#2A2E32"/>
<ellipse cx="138" cy="492" rx="4" ry="2" fill="#35DFB1"/>
<path d="M242 311L296.5 342.5" stroke="url(#paint7_linear)"/>
<path d="M681 310L896 431" stroke="url(#paint8_linear)"/>
<path d="M689.5 499.5L850 405" stroke="url(#paint9_linear)"/>
<path d="M704.5 495C704.5 496.725 703.502 498.338 701.784 499.54C700.068 500.741 697.671 501.5 695 501.5C692.329 501.5 689.932 500.741 688.216 499.54C686.498 498.338 685.5 496.725 685.5 495C685.5 493.275 686.498 491.662 688.216 490.46C689.932 489.259 692.329 488.5 695 488.5C697.671 488.5 700.068 489.259 701.784 490.46C703.502 491.662 704.5 493.275 704.5 495Z" fill="#141416" stroke="#2A2E32"/>
<ellipse cx="695" cy="495" rx="4" ry="2" fill="#35DFB1"/>
</g>
<g filter="url(#filter1_d)">
<path d="M423 346V378L350 420V388L423 346Z" fill="#372558"/>
<path d="M423 346V378L496 420V388L423 346Z" fill="#372558"/>
<path d="M423 378L496 420L423 463L350 420L423 378Z" fill="#5A359B"/>
<path d="M423 346L496 388L423 431L350 388L423 346Z" fill="#7E45DD"/>
</g>
<path opacity="0.8" d="M423 364L464 386.927L423 411L382 386.927L423 364Z" fill="url(#paint10_linear)"/>
<path opacity="0.1" d="M372 271H474L464 386.842L423 411L382 386.842L372 271Z" fill="url(#paint11_linear)"/>
<circle opacity="0.3" cx="400" cy="386" r="1" fill="white"/>
<circle cx="408" cy="394" r="1" fill="white"/>
<circle cx="420.5" cy="401.5" r="1.5" fill="white"/>
<circle cx="421" cy="385" r="1" fill="white"/>
<circle opacity="0.5" cx="416" cy="361" r="1" fill="white"/>
<circle opacity="0.2" cx="445" cy="352" r="1" fill="white"/>
<circle cx="399" cy="343" r="1" fill="white"/>
<circle cx="382.5" cy="338.5" r="0.5" fill="white"/>
<circle opacity="0.3" cx="434" cy="336" r="1" fill="white"/>
<circle opacity="0.4" cx="406" cy="330" r="1" fill="white"/>
<circle cx="445.5" cy="317.5" r="1.5" fill="white"/>
<circle opacity="0.6" cx="396.5" cy="370.5" r="1.5" fill="white"/>
<circle opacity="0.3" cx="463.5" cy="362.5" r="1.5" fill="white"/>
<circle cx="463.5" cy="312.5" r="1.5" fill="white"/>
<circle opacity="0.5" cx="394.5" cy="323.5" r="0.5" fill="white"/>
<circle opacity="0.6" cx="389.5" cy="300.5" r="0.5" fill="white"/>
<circle opacity="0.5" cx="415" cy="319" r="1" fill="white"/>
<circle cx="438" cy="395" r="1" fill="white"/>
<circle cx="423" cy="270" r="30" fill="white"/>
<g clip-path="url(#clip0)">
<path d="M431.507 264.46C430.899 264.122 430.118 264.122 429.424 264.46L424.562 267.251L421.264 269.027L416.49 271.818C415.882 272.157 415.101 272.157 414.406 271.818L410.674 269.619C410.066 269.281 409.632 268.605 409.632 267.843V263.614C409.632 262.938 409.979 262.261 410.674 261.838L414.406 259.724C415.014 259.386 415.795 259.386 416.49 259.724L420.222 261.923C420.83 262.261 421.264 262.938 421.264 263.699V266.49L424.562 264.629V261.754C424.562 261.077 424.215 260.401 423.521 259.978L416.576 256.003C415.969 255.664 415.187 255.664 414.493 256.003L407.375 260.062C406.681 260.401 406.333 261.077 406.333 261.754V269.704C406.333 270.381 406.681 271.057 407.375 271.48L414.406 275.455C415.014 275.794 415.795 275.794 416.49 275.455L421.264 272.749L424.562 270.888L429.337 268.182C429.944 267.843 430.726 267.843 431.42 268.182L435.153 270.296C435.76 270.634 436.194 271.311 436.194 272.072V276.301C436.194 276.978 435.847 277.654 435.153 278.077L431.507 280.192C430.899 280.53 430.118 280.53 429.424 280.192L425.691 278.077C425.083 277.739 424.649 277.062 424.649 276.301V273.595L421.351 275.455V278.246C421.351 278.923 421.698 279.6 422.392 280.022L429.424 283.998C430.031 284.336 430.812 284.336 431.507 283.998L438.538 280.022C439.146 279.684 439.58 279.007 439.58 278.246V270.211C439.58 269.535 439.233 268.858 438.538 268.435L431.507 264.46Z" fill="#7E45DD"/>
</g>
<g filter="url(#filter2_d)">
<path d="M209 475V507L136 549V517L209 475Z" fill="#0D5879"/>
<path d="M209 475V507L282 549V517L209 475Z" fill="#0D5879"/>
<path d="M209 507L282 549L209 592L136 549L209 507Z" fill="#0780B5"/>
<path d="M209 475L282 517L209 560L136 517L209 475Z" fill="#02A0E4"/>
</g>
<path opacity="0.8" d="M209 495L251 518.415L209 543L167 518.415L209 495Z" fill="url(#paint12_linear)"/>
<path opacity="0.1" d="M157 417.5H261L251 518.526L209 543L167 518.526L157 417.5Z" fill="url(#paint13_linear)"/>
<circle cx="209" cy="418" r="30" fill="white"/>
<g clip-path="url(#clip1)">
<path d="M209 434.667C218.205 434.667 225.667 427.205 225.667 418C225.667 408.795 218.205 401.333 209 401.333C199.795 401.333 192.333 408.795 192.333 418C192.333 427.205 199.795 434.667 209 434.667Z" fill="#2E3148"/>
<path d="M209 427.671C214.341 427.671 218.671 423.341 218.671 418C218.671 412.659 214.341 408.329 209 408.329C203.659 408.329 199.329 412.659 199.329 418C199.329 423.341 203.659 427.671 209 427.671Z" fill="#1B1E36"/>
<path d="M209.034 403.459C207.235 403.459 205.776 409.985 205.776 418.034C205.776 426.084 207.235 432.609 209.034 432.609C210.833 432.609 212.292 426.084 212.292 418.034C212.292 409.985 210.833 403.459 209.034 403.459ZM209.259 431.787C209.054 432.061 208.848 431.855 208.848 431.855C208.019 430.895 207.605 429.112 207.605 429.112C206.156 424.448 206.501 414.434 206.501 414.434C207.182 406.484 208.421 404.606 208.842 404.189C208.885 404.147 208.942 404.121 209.002 404.116C209.063 404.111 209.123 404.127 209.172 404.163C209.784 404.596 210.297 406.409 210.297 406.409C211.812 412.033 211.675 417.314 211.675 417.314C211.812 421.909 210.916 427.053 210.916 427.053C210.226 430.963 209.259 431.787 209.259 431.787Z" fill="#6F7390"/>
<path d="M221.676 410.781C220.781 409.22 214.395 411.202 207.41 415.208C200.424 419.213 195.497 423.726 196.392 425.287C197.287 426.847 203.673 424.866 210.658 420.86C217.644 416.854 222.571 412.342 221.676 410.781ZM197.218 425.073C196.875 425.029 196.953 424.748 196.953 424.748C197.373 423.551 198.712 422.304 198.712 422.304C202.038 418.726 210.896 414.042 210.896 414.042C218.13 410.677 220.377 410.819 220.947 410.976C221.005 410.992 221.056 411.029 221.09 411.079C221.124 411.129 221.14 411.19 221.133 411.25C221.065 411.997 219.744 413.344 219.744 413.344C215.623 417.458 210.973 419.968 210.973 419.968C207.056 422.374 202.148 424.156 202.148 424.156C198.413 425.501 197.218 425.073 197.218 425.073H197.218Z" fill="#6F7390"/>
<path d="M221.645 425.339C222.547 423.782 217.632 419.248 210.671 415.212C203.71 411.177 197.326 409.17 196.424 410.73C195.522 412.289 200.436 416.82 207.401 420.856C214.366 424.892 220.743 426.898 221.645 425.339ZM197.022 411.331C196.889 411.015 197.17 410.939 197.17 410.939C198.416 410.704 200.167 411.24 200.167 411.24C204.929 412.324 213.42 417.643 213.42 417.643C219.958 422.218 220.96 424.233 221.111 424.805C221.126 424.864 221.12 424.926 221.094 424.981C221.068 425.035 221.023 425.079 220.968 425.104C220.286 425.416 218.46 424.951 218.46 424.951C212.833 423.442 208.332 420.678 208.332 420.678C204.288 418.496 200.29 415.14 200.29 415.14C197.251 412.582 197.023 411.335 197.023 411.335L197.022 411.331Z" fill="#6F7390"/>
<path d="M209 419.714C209.947 419.714 210.715 418.947 210.715 418C210.715 417.053 209.947 416.285 209 416.285C208.053 416.285 207.285 417.053 207.285 418C207.285 418.947 208.053 419.714 209 419.714Z" fill="#B7B9C8"/>
<path d="M216.03 412.444C216.579 412.444 217.025 411.984 217.025 411.416C217.025 410.847 216.579 410.387 216.03 410.387C215.481 410.387 215.036 410.847 215.036 411.416C215.036 411.984 215.481 412.444 216.03 412.444Z" fill="#B7B9C8"/>
<path d="M199.706 415.942C200.256 415.942 200.701 415.482 200.701 414.914C200.701 414.345 200.256 413.885 199.706 413.885C199.157 413.885 198.712 414.345 198.712 414.914C198.712 415.482 199.157 415.942 199.706 415.942Z" fill="#B7B9C8"/>
<path d="M206.977 428.562C207.526 428.562 207.971 428.102 207.971 427.533C207.971 426.965 207.526 426.505 206.977 426.505C206.428 426.505 205.982 426.965 205.982 427.533C205.982 428.102 206.428 428.562 206.977 428.562Z" fill="#B7B9C8"/>
</g>
<g filter="url(#filter3_d)">
<path d="M637 475V507L564 549V517L637 475Z" fill="#481114"/>
<path d="M637 475V507L710 549V517L637 475Z" fill="#481114"/>
<path d="M637 507L710 549L637 592L564 549L637 507Z" fill="#8B1820"/>
<path d="M637 475L710 517L637 560L564 517L637 475Z" fill="#E00D13"/>
</g>
<path opacity="0.8" d="M637 495L679 518.415L637 543L595 518.415L637 495Z" fill="url(#paint14_linear)"/>
<path opacity="0.1" d="M585 417.5H689L679 518.526L637 543L595 518.526L585 417.5Z" fill="url(#paint15_linear)"/>
<circle cx="637" cy="418" r="30" fill="white"/>
<g clip-path="url(#clip2)">
<path d="M636.734 402.167C630.448 402.193 625.359 407.407 625.333 413.847C625.333 415.137 625.537 416.418 625.935 417.641C626.232 418.474 627.113 418.922 627.94 418.665C628.74 418.351 629.164 417.455 628.909 416.618C628.571 415.664 628.421 414.653 628.466 413.64C628.603 408.989 632.394 405.331 636.934 405.472C641.474 405.612 645.044 409.496 644.907 414.148C644.778 418.502 641.431 422.039 637.185 422.304C637.185 422.304 635.585 422.404 634.789 422.503C634.496 422.547 634.205 422.606 633.917 422.681C633.876 422.724 633.81 422.724 633.768 422.682L633.767 422.681C633.738 422.643 633.738 422.588 633.767 422.55L634.015 421.166L635.518 414.24C635.698 413.375 635.16 412.524 634.316 412.339C633.472 412.155 632.641 412.705 632.461 413.57C632.461 413.57 628.886 430.522 628.886 430.676C628.682 431.5 629.168 432.337 629.972 432.547C629.981 432.549 629.99 432.552 629.999 432.553H630.082C630.885 432.766 631.705 432.271 631.912 431.448C631.915 431.434 631.919 431.421 631.921 431.406C631.919 431.38 631.919 431.354 631.921 431.33C631.966 431.13 632.417 428.875 632.417 428.875C632.758 427.172 634.098 425.868 635.774 425.604C636.119 425.55 637.569 425.45 637.569 425.45C643.831 424.811 648.401 419.091 647.776 412.676C647.206 406.824 642.474 402.319 636.734 402.167Z" fill="#1E1E1E"/>
<path d="M637.426 429.099C636.398 428.88 635.392 429.556 635.178 430.608C635.176 430.618 635.175 430.628 635.172 430.637C634.95 431.683 635.597 432.717 636.619 432.945C636.62 432.945 636.621 432.945 636.623 432.946H636.675C637.676 433.194 638.682 432.563 638.923 431.539C638.925 431.532 638.926 431.523 638.929 431.516V431.409C639.105 430.352 638.447 429.338 637.426 429.099Z" fill="#E6007A"/>
</g>
<g filter="url(#filter4_d)">
<path d="M209 208V240L136 282V250L209 208Z" fill="#463A1B"/>
<path d="M209 208V240L282 282V250L209 208Z" fill="#5D4B1E"/>
<path d="M209 240L282 282L209 325L136 282L209 240Z" fill="#A27E26"/>
<path d="M209 208L282 250L209 293L136 250L209 208Z" fill="#DDAF17"/>
</g>
<path opacity="0.8" d="M209 228L251 251.415L209 276L167 251.415L209 228Z" fill="url(#paint16_linear)"/>
<path opacity="0.1" d="M157 153.5H261L251 251.526L209 276L167 251.526L157 153.5Z" fill="url(#paint17_linear)"/>
<g filter="url(#filter5_d)">
<circle cx="209" cy="138" r="30" fill="white"/>
</g>
<g clip-path="url(#clip3)">
<path d="M202.526 135.34L209 128.867L215.477 135.343L219.243 131.576L209 121.333L198.76 131.573L202.527 135.34L202.526 135.34ZM192.333 138L196.1 134.233L199.867 137.999L196.1 141.766L192.333 138ZM202.526 140.66L209 147.133L215.477 140.657L219.245 144.422L219.243 144.424L209 154.667L198.76 144.427L198.755 144.421L202.527 140.66L202.526 140.66ZM218.133 138.002L221.9 134.235L225.667 138.001L221.9 141.768L218.133 138.002Z" fill="#F3BA2F"/>
<path d="M212.82 137.998H212.822L209 134.176L206.175 137L205.851 137.325L205.181 137.994L205.176 137.999L205.181 138.005L209 141.824L212.822 138.002L212.824 138L212.821 137.998" fill="#F3BA2F"/>
</g>
<g filter="url(#filter6_d)">
<path d="M423 96V128L350 170V138L423 96Z" fill="#2A2A2C"/>
<path d="M423 96V128L496 170V138L423 96Z" fill="#2A2A2C"/>
<path d="M423 128L496 170L423 213L350 170L423 128Z" fill="#303034"/>
<path d="M423 96L496 138L423 181L350 138L423 96Z" fill="#4A4A53"/>
</g>
<path opacity="0.8" d="M423 115L464 138.415L423 163L382 138.415L423 115Z" fill="url(#paint18_linear)"/>
<path opacity="0.1" d="M372 30H474L464 138.842L423 163L382 138.842L372 30Z" fill="url(#paint19_linear)"/>
<circle cx="423" cy="30" r="30" fill="white"/>
<g clip-path="url(#clip4)">
<path d="M422.997 12.5L422.76 13.3163V37.0048L422.997 37.2446L433.827 30.7449L422.997 12.5Z" fill="#343434"/>
<path d="M422.997 12.5L412.167 30.7449L422.997 37.2447V25.747V12.5Z" fill="#8C8C8C"/>
<path d="M422.997 39.3265L422.863 39.4915V47.9298L422.997 48.3252L433.833 32.8301L422.997 39.3265Z" fill="#3C3C3B"/>
<path d="M422.997 48.3252V39.3265L412.167 32.8301L422.997 48.3252Z" fill="#8C8C8C"/>
<path d="M422.997 37.2446L433.827 30.745L422.997 25.7471V37.2446Z" fill="#141414"/>
<path d="M412.167 30.745L422.997 37.2446V25.7471L412.167 30.745Z" fill="#393939"/>
</g>
<g filter="url(#filter7_d)">
<path d="M637 208V240L564 282V250L637 208Z" fill="#0F482E"/>
<path d="M637 208V240L710 282V250L637 208Z" fill="#0F482E"/>
<path d="M637 240L710 282L637 325L564 282L637 240Z" fill="#099D54"/>
<path d="M637 208L710 250L637 293L564 250L637 208Z" fill="#02E879"/>
</g>
<path opacity="0.8" d="M637 226L678 248.927L637 273L596 248.927L637 226Z" fill="url(#paint20_linear)"/>
<path opacity="0.1" d="M586 140H688L678 248.842L637 273L596 248.842L586 140Z" fill="url(#paint21_linear)"/>
<circle opacity="0.3" cx="614" cy="248" r="1" fill="white"/>
<circle cx="622" cy="256" r="1" fill="white"/>
<circle cx="634.5" cy="263.5" r="1.5" fill="white"/>
<circle cx="635" cy="247" r="1" fill="white"/>
<circle opacity="0.5" cx="630" cy="223" r="1" fill="white"/>
<circle opacity="0.2" cx="659" cy="214" r="1" fill="white"/>
<circle cx="613" cy="205" r="1" fill="white"/>
<circle cx="596.5" cy="200.5" r="0.5" fill="white"/>
<circle opacity="0.3" cx="648" cy="198" r="1" fill="white"/>
<circle opacity="0.4" cx="620" cy="192" r="1" fill="white"/>
<circle cx="659.5" cy="179.5" r="1.5" fill="white"/>
<circle opacity="0.6" cx="610.5" cy="232.5" r="1.5" fill="white"/>
<circle opacity="0.3" cx="677.5" cy="224.5" r="1.5" fill="white"/>
<circle cx="677.5" cy="174.5" r="1.5" fill="white"/>
<circle opacity="0.5" cx="608.5" cy="185.5" r="0.5" fill="white"/>
<circle opacity="0.6" cx="603.5" cy="162.5" r="0.5" fill="white"/>
<circle opacity="0.5" cx="629" cy="181" r="1" fill="white"/>
<circle cx="652" cy="257" r="1" fill="white"/>
<circle cx="637" cy="138" r="30" fill="white"/>
<g clip-path="url(#clip5)">
<path d="M628.561 143.265C628.712 143.111 628.919 143.021 629.139 143.021H649.091C649.456 143.021 649.638 143.47 649.381 143.733L645.439 147.756C645.288 147.91 645.081 148 644.861 148H624.909C624.544 148 624.362 147.551 624.619 147.288L628.561 143.265Z" fill="url(#paint22_linear)"/>
<path d="M628.56 128.244C628.717 128.09 628.924 128 629.138 128H649.09C649.455 128 649.637 128.449 649.379 128.712L645.438 132.735C645.287 132.889 645.08 132.979 644.86 132.979H624.907C624.543 132.979 624.36 132.53 624.618 132.267L628.56 128.244Z" fill="url(#paint23_linear)"/>
<path d="M645.439 135.706C645.288 135.552 645.081 135.462 644.861 135.462H624.909C624.544 135.462 624.362 135.912 624.619 136.175L628.561 140.198C628.712 140.352 628.919 140.442 629.139 140.442H649.091C649.456 140.442 649.638 139.992 649.381 139.729L645.439 135.706Z" fill="url(#paint24_linear)"/>
</g>
<defs>
<filter id="filter0_d" x="10.3259" y="192" width="889.919" height="496.43" filterUnits="userSpaceOnUse" color-interpolation-filters="sRGB">
<feFlood flood-opacity="0" result="BackgroundImageFix"/>
<feColorMatrix in="SourceAlpha" type="matrix" values="0 0 0 0 0 0 0 0 0 0 0 0 0 0 0 0 0 0 127 0"/>
<feOffset dy="2"/>
<feGaussianBlur stdDeviation="2"/>
<feColorMatrix type="matrix" values="0 0 0 0 0.145098 0 0 0 0 0.603922 0 0 0 0 0.478431 0 0 0 0.1 0"/>
<feBlend mode="normal" in2="BackgroundImageFix" result="effect1_dropShadow"/>
<feBlend mode="normal" in="SourceGraphic" in2="effect1_dropShadow" result="shape"/>
</filter>
<filter id="filter1_d" x="320" y="328" width="206" height="177" filterUnits="userSpaceOnUse" color-interpolation-filters="sRGB">
<feFlood flood-opacity="0" result="BackgroundImageFix"/>
<feColorMatrix in="SourceAlpha" type="matrix" values="0 0 0 0 0 0 0 0 0 0 0 0 0 0 0 0 0 0 127 0"/>
<feOffset dy="12"/>
<feGaussianBlur stdDeviation="15"/>
<feColorMatrix type="matrix" values="0 0 0 0 0.494118 0 0 0 0 0.270588 0 0 0 0 0.866667 0 0 0 0.2 0"/>
<feBlend mode="normal" in2="BackgroundImageFix" result="effect1_dropShadow"/>
<feBlend mode="normal" in="SourceGraphic" in2="effect1_dropShadow" result="shape"/>
</filter>
<filter id="filter2_d" x="106" y="457" width="206" height="177" filterUnits="userSpaceOnUse" color-interpolation-filters="sRGB">
<feFlood flood-opacity="0" result="BackgroundImageFix"/>
<feColorMatrix in="SourceAlpha" type="matrix" values="0 0 0 0 0 0 0 0 0 0 0 0 0 0 0 0 0 0 127 0"/>
<feOffset dy="12"/>
<feGaussianBlur stdDeviation="15"/>
<feColorMatrix type="matrix" values="0 0 0 0 0 0 0 0 0 0.694118 0 0 0 0 0.992157 0 0 0 0.2 0"/>
<feBlend mode="normal" in2="BackgroundImageFix" result="effect1_dropShadow"/>
<feBlend mode="normal" in="SourceGraphic" in2="effect1_dropShadow" result="shape"/>
</filter>
<filter id="filter3_d" x="534" y="457" width="206" height="177" filterUnits="userSpaceOnUse" color-interpolation-filters="sRGB">
<feFlood flood-opacity="0" result="BackgroundImageFix"/>
<feColorMatrix in="SourceAlpha" type="matrix" values="0 0 0 0 0 0 0 0 0 0 0 0 0 0 0 0 0 0 127 0"/>
<feOffset dy="12"/>
<feGaussianBlur stdDeviation="15"/>
<feColorMatrix type="matrix" values="0 0 0 0 0.878431 0 0 0 0 0.0509804 0 0 0 0 0.0745098 0 0 0 0.2 0"/>
<feBlend mode="normal" in2="BackgroundImageFix" result="effect1_dropShadow"/>
<feBlend mode="normal" in="SourceGraphic" in2="effect1_dropShadow" result="shape"/>
</filter>
<filter id="filter4_d" x="106" y="190" width="206" height="177" filterUnits="userSpaceOnUse" color-interpolation-filters="sRGB">
<feFlood flood-opacity="0" result="BackgroundImageFix"/>
<feColorMatrix in="SourceAlpha" type="matrix" values="0 0 0 0 0 0 0 0 0 0 0 0 0 0 0 0 0 0 127 0"/>
<feOffset dy="12"/>
<feGaussianBlur stdDeviation="15"/>
<feColorMatrix type="matrix" values="0 0 0 0 0.92549 0 0 0 0 0.733333 0 0 0 0 0.0745098 0 0 0 0.2 0"/>
<feBlend mode="normal" in2="BackgroundImageFix" result="effect1_dropShadow"/>
<feBlend mode="normal" in="SourceGraphic" in2="effect1_dropShadow" result="shape"/>
</filter>
<filter id="filter5_d" x="167" y="104" width="84" height="84" filterUnits="userSpaceOnUse" color-interpolation-filters="sRGB">
<feFlood flood-opacity="0" result="BackgroundImageFix"/>
<feColorMatrix in="SourceAlpha" type="matrix" values="0 0 0 0 0 0 0 0 0 0 0 0 0 0 0 0 0 0 127 0"/>
<feMorphology radius="24" operator="erode" in="SourceAlpha" result="effect1_dropShadow"/>
<feOffset dy="8"/>
<feGaussianBlur stdDeviation="18"/>
<feColorMatrix type="matrix" values="0 0 0 0 0.952941 0 0 0 0 0.917647 0 0 0 0 0.00784314 0 0 0 1 0"/>
<feBlend mode="normal" in2="BackgroundImageFix" result="effect1_dropShadow"/>
<feBlend mode="normal" in="SourceGraphic" in2="effect1_dropShadow" result="shape"/>
</filter>
<filter id="filter6_d" x="320" y="78" width="206" height="177" filterUnits="userSpaceOnUse" color-interpolation-filters="sRGB">
<feFlood flood-opacity="0" result="BackgroundImageFix"/>
<feColorMatrix in="SourceAlpha" type="matrix" values="0 0 0 0 0 0 0 0 0 0 0 0 0 0 0 0 0 0 127 0"/>
<feOffset dy="12"/>
<feGaussianBlur stdDeviation="15"/>
<feColorMatrix type="matrix" values="0 0 0 0 0.290196 0 0 0 0 0.290196 0 0 0 0 0.32549 0 0 0 0.2 0"/>
<feBlend mode="normal" in2="BackgroundImageFix" result="effect1_dropShadow"/>
<feBlend mode="normal" in="SourceGraphic" in2="effect1_dropShadow" result="shape"/>
</filter>
<filter id="filter7_d" x="534" y="190" width="206" height="177" filterUnits="userSpaceOnUse" color-interpolation-filters="sRGB">
<feFlood flood-opacity="0" result="BackgroundImageFix"/>
<feColorMatrix in="SourceAlpha" type="matrix" values="0 0 0 0 0 0 0 0 0 0 0 0 0 0 0 0 0 0 127 0"/>
<feOffset dy="12"/>
<feGaussianBlur stdDeviation="15"/>
<feColorMatrix type="matrix" values="0 0 0 0 0.00784314 0 0 0 0 0.909804 0 0 0 0 0.47451 0 0 0 0.2 0"/>
<feBlend mode="normal" in2="BackgroundImageFix" result="effect1_dropShadow"/>
<feBlend mode="normal" in="SourceGraphic" in2="effect1_dropShadow" result="shape"/>
</filter>
<linearGradient id="paint0_linear" x1="371.75" y1="203" x2="371.75" y2="271.143" gradientUnits="userSpaceOnUse">
<stop offset="0.0001" stop-color="#005A42"/>
<stop offset="1" stop-color="#35DFB1"/>
</linearGradient>
<linearGradient id="paint1_linear" x1="463" y1="438" x2="586.257" y2="505.281" gradientUnits="userSpaceOnUse">
<stop stop-color="#35DFB1"/>
<stop offset="0.0001" stop-color="#35DFB1"/>
<stop offset="1" stop-color="#35DFB1" stop-opacity="0"/>
</linearGradient>
<linearGradient id="paint2_linear" x1="585" y1="560" x2="378" y2="682" gradientUnits="userSpaceOnUse">
<stop stop-color="#35DFB1"/>
<stop offset="0.0001" stop-color="#35DFB1"/>
<stop offset="1" stop-color="#35DFB1" stop-opacity="0"/>
</linearGradient>
<linearGradient id="paint3_linear" x1="575.25" y1="310.5" x2="575.25" y2="343.97" gradientUnits="userSpaceOnUse">
<stop offset="0.0001" stop-color="#06694E"/>
<stop offset="1" stop-color="#35DFB1"/>
</linearGradient>
<linearGradient id="paint4_linear" x1="291" y1="499" x2="290.484" y2="498.127" gradientUnits="userSpaceOnUse">
<stop offset="0.0001" stop-color="#06694E"/>
<stop offset="1" stop-color="#35DFB1"/>
</linearGradient>
<linearGradient id="paint5_linear" x1="422" y1="270" x2="422" y2="555.003" gradientUnits="userSpaceOnUse">
<stop offset="0.0001" stop-color="#005A42"/>
<stop offset="1" stop-color="#35DFB1"/>
</linearGradient>
<linearGradient id="paint6_linear" x1="84.75" y1="318" x2="84.75" y2="496" gradientUnits="userSpaceOnUse">
<stop offset="0.0001" stop-color="#005A42"/>
<stop offset="1" stop-color="#35DFB1"/>
</linearGradient>
<linearGradient id="paint7_linear" x1="242" y1="311" x2="297.189" y2="341.243" gradientUnits="userSpaceOnUse">
<stop stop-color="#35DFB1" stop-opacity="0"/>
<stop offset="1" stop-color="#35DFB1"/>
</linearGradient>
<linearGradient id="paint8_linear" x1="681" y1="310" x2="896" y2="431" gradientUnits="userSpaceOnUse">
<stop stop-color="#35DFB1"/>
<stop offset="0.0001" stop-color="#35DFB1"/>
<stop offset="1" stop-color="#35DFB1" stop-opacity="0"/>
</linearGradient>
<linearGradient id="paint9_linear" x1="850" y1="405" x2="690" y2="500" gradientUnits="userSpaceOnUse">
<stop stop-color="#35DFB1"/>
<stop offset="0.0001" stop-color="#35DFB1" stop-opacity="0"/>
<stop offset="1" stop-color="#35DFB1"/>
</linearGradient>
<linearGradient id="paint10_linear" x1="423" y1="364" x2="423" y2="411" gradientUnits="userSpaceOnUse">
<stop stop-color="white" stop-opacity="0"/>
<stop offset="1" stop-color="white"/>
</linearGradient>
<linearGradient id="paint11_linear" x1="423" y1="271.541" x2="423" y2="384.542" gradientUnits="userSpaceOnUse">
<stop stop-color="white" stop-opacity="0"/>
<stop offset="1" stop-color="white"/>
</linearGradient>
<linearGradient id="paint12_linear" x1="209" y1="495" x2="209" y2="543" gradientUnits="userSpaceOnUse">
<stop stop-color="white" stop-opacity="0"/>
<stop offset="1" stop-color="white"/>
</linearGradient>
<linearGradient id="paint13_linear" x1="209" y1="417.985" x2="209" y2="519.282" gradientUnits="userSpaceOnUse">
<stop stop-color="white" stop-opacity="0"/>
<stop offset="1" stop-color="white"/>
</linearGradient>
<linearGradient id="paint14_linear" x1="637" y1="495" x2="637" y2="543" gradientUnits="userSpaceOnUse">
<stop stop-color="white" stop-opacity="0"/>
<stop offset="1" stop-color="white"/>
</linearGradient>
<linearGradient id="paint15_linear" x1="637" y1="417.985" x2="637" y2="519.282" gradientUnits="userSpaceOnUse">
<stop stop-color="white" stop-opacity="0"/>
<stop offset="1" stop-color="white"/>
</linearGradient>
<linearGradient id="paint16_linear" x1="209" y1="228" x2="209" y2="276" gradientUnits="userSpaceOnUse">
<stop stop-color="white" stop-opacity="0"/>
<stop offset="1" stop-color="white"/>
</linearGradient>
<linearGradient id="paint17_linear" x1="209" y1="153.973" x2="209" y2="252.849" gradientUnits="userSpaceOnUse">
<stop stop-color="white" stop-opacity="0"/>
<stop offset="1" stop-color="white"/>
</linearGradient>
<linearGradient id="paint18_linear" x1="423" y1="115" x2="423" y2="163" gradientUnits="userSpaceOnUse">
<stop stop-color="white" stop-opacity="0"/>
<stop offset="1" stop-color="white"/>
</linearGradient>
<linearGradient id="paint19_linear" x1="423" y1="30.5135" x2="423" y2="137.865" gradientUnits="userSpaceOnUse">
<stop stop-color="white" stop-opacity="0"/>
<stop offset="1" stop-color="white"/>
</linearGradient>
<linearGradient id="paint20_linear" x1="637" y1="226" x2="637" y2="273" gradientUnits="userSpaceOnUse">
<stop stop-color="white" stop-opacity="0"/>
<stop offset="1" stop-color="white"/>
</linearGradient>
<linearGradient id="paint21_linear" x1="637" y1="140.514" x2="637" y2="247.865" gradientUnits="userSpaceOnUse">
<stop stop-color="white" stop-opacity="0"/>
<stop offset="1" stop-color="white"/>
</linearGradient>
<linearGradient id="paint22_linear" x1="647.185" y1="125.597" x2="632.927" y2="152.354" gradientUnits="userSpaceOnUse">
<stop stop-color="#00FFA3"/>
<stop offset="1" stop-color="#DC1FFF"/>
</linearGradient>
<linearGradient id="paint23_linear" x1="641.146" y1="122.379" x2="626.887" y2="149.136" gradientUnits="userSpaceOnUse">
<stop stop-color="#00FFA3"/>
<stop offset="1" stop-color="#DC1FFF"/>
</linearGradient>
<linearGradient id="paint24_linear" x1="644.147" y1="123.978" x2="629.888" y2="150.735" gradientUnits="userSpaceOnUse">
<stop stop-color="#00FFA3"/>
<stop offset="1" stop-color="#DC1FFF"/>
</linearGradient>
<clipPath id="clip0">
<rect width="33.3333" height="28.3333" fill="white" transform="translate(406.333 255.833)"/>
</clipPath>
<clipPath id="clip1">
<rect width="33.3333" height="33.3333" fill="white" transform="translate(192.333 401.333)"/>
</clipPath>
<clipPath id="clip2">
<rect width="22.5" height="30.8333" fill="white" transform="translate(625.333 402.167)"/>
</clipPath>
<clipPath id="clip3">
<rect width="33.3333" height="33.3333" fill="white" transform="translate(192.333 121.333)"/>
</clipPath>
<clipPath id="clip4">
<rect width="21.6667" height="35.8333" fill="white" transform="translate(412.167 12.5)"/>
</clipPath>
<clipPath id="clip5">
<rect width="25" height="20" fill="white" transform="translate(624.5 128)"/>
</clipPath>
</defs>
</svg>
